<svg width="25" height="24" viewBox="0 0 25 24" fill="none" xmlns="http://www.w3.org/2000/svg">
<path d="M15.9078 20.2765L15.9084 20.2766C16.1692 20.3506 16.4199 20.3889 16.7021 20.432C16.8295 20.4514 16.9634 20.4718 17.1075 20.497C17.9424 20.4432 19.0352 20.0674 19.6687 19.543L19.6688 19.543C19.8991 19.3524 20.0923 19.1226 20.1867 18.9065C20.3051 18.634 20.3626 18.3415 20.4315 17.9915C20.4501 17.8966 20.4696 17.7975 20.4914 17.6934L20.4915 17.6928C20.5083 17.6131 20.4955 17.5831 20.4934 17.5785C20.4922 17.5759 20.4805 17.5471 20.4073 17.5082L20.4069 17.508C20.295 17.4482 20.1908 17.3828 20.1005 17.3255C20.0885 17.3179 20.0768 17.3105 20.0654 17.3032C19.986 17.2527 19.9179 17.2094 19.8481 17.1693L15.9078 20.2765ZM15.9078 20.2765C13.2114 19.5148 10.947 18.0611 9.05211 15.9858C7.93926 14.7667 6.98465 13.4951 6.39912 12.0073C6.05951 11.1439 5.73868 10.3069 5.57131 9.45683L5.57127 9.45661M15.9078 20.2765L5.57127 9.45661M5.57127 9.45661C5.31814 8.17399 5.75487 7.02348 6.66463 6.03035L5.57127 9.45661ZM9.66887 7.67597L9.66878 7.67582C9.5269 7.43268 9.38691 7.19073 9.24747 6.94974C8.9664 6.46394 8.68755 5.98201 8.39992 5.50187C8.39991 5.50185 8.39981 5.50169 8.39961 5.50138C7.65145 5.48623 7.06125 5.59803 6.66473 6.03024L9.66887 7.67597ZM9.66887 7.67597C9.78472 7.87434 9.90628 8.07394 10.025 8.2688C10.0829 8.36399 10.1402 8.45805 10.1958 8.55028L10.1959 8.55044M9.66887 7.67597L10.1959 8.55044M10.1959 8.55044C10.3274 8.76847 10.3215 8.8349 10.3209 8.83999M10.1959 8.55044L10.3209 8.83999M16.8016 15.9282L16.8014 15.9283C16.6637 16.0816 16.5216 16.2438 16.377 16.4089C16.1471 16.6715 15.9108 16.9414 15.6752 17.194L16.8016 15.9282ZM16.8016 15.9282C17.038 15.665 17.1164 15.6564 17.1221 15.6558L17.1223 15.6558C17.1405 15.6538 17.2295 15.6544 17.547 15.8486L17.5471 15.8486M16.8016 15.9282L17.5471 15.8486M17.5471 15.8486C18.0566 16.1601 18.5843 16.4565 19.1024 16.7476M17.5471 15.8486L19.1024 16.7476M10.3209 8.83999C10.3209 8.84016 10.3205 8.85336 10.2993 8.88754M10.3209 8.83999L10.2993 8.88754M10.2993 8.88754C10.2755 8.92583 10.2307 8.98217 10.1472 9.06229L10.2993 8.88754ZM19.1024 16.7476C19.3543 16.889 19.6039 17.0292 19.848 17.1693L19.1024 16.7476ZM10.1471 9.06235C9.85121 9.34601 9.52795 9.60968 9.18809 9.88351C8.97486 10.055 8.78543 10.2155 8.64257 10.3743C8.49573 10.5375 8.36647 10.7328 8.32155 10.9793C8.27673 11.2254 8.32861 11.4531 8.40643 11.6556C8.48222 11.8529 8.59977 12.0685 8.73337 12.3017L10.1471 9.06235ZM13.9336 17.3583C13.983 17.3884 14.0323 17.4185 14.0814 17.4486L8.73341 12.3018C9.48548 13.615 10.3794 14.8796 11.6416 15.8448C12.3767 16.407 13.1701 16.8917 13.9336 17.3583Z" fill="white" stroke="black"/>
</svg>
