<svg width="240" height="100" viewBox="0 0 240 100" fill="none" xmlns="http://www.w3.org/2000/svg">
<path fill-rule="evenodd" clip-rule="evenodd" d="M0 10C0 4.47716 4.47715 0 10 0H30V1H31V0H210V1H211V0H230C235.523 0 240 4.47715 240 10V38C233.373 38 228 43.3726 228 50C228 56.6274 233.373 62 240 62V90C240 95.5228 235.523 100 230 100H211V99H210V100H31V99H30V100H10C4.47716 100 0 95.5229 0 90V62C6.62742 62 12 56.6274 12 50C12 43.3726 6.62742 38 0 38V10ZM30 5V3H31V5H30ZM30 9V7H31V9H30ZM30 13V11H31V13H30ZM30 17V15H31V17H30ZM30 21V19H31V21H30ZM30 25V23H31V25H30ZM30 29V27H31V29H30ZM30 33V31H31V33H30ZM30 37V35H31V37H30ZM30 41V39H31V41H30ZM30 45V43H31V45H30ZM30 49V47H31V49H30ZM30 53V51H31V53H30ZM30 57V55H31V57H30ZM30 61V59H31V61H30ZM30 65V63H31V65H30ZM30 69V67H31V69H30ZM30 73V71H31V73H30ZM30 77V75H31V77H30ZM30 81V79H31V81H30ZM30 85V83H31V85H30ZM30 89V87H31V89H30ZM30 93V91H31V93H30ZM30 97V95H31V97H30ZM210 3V5H211V3H210ZM210 7V9H211V7H210ZM210 11V13H211V11H210ZM210 15V17H211V15H210ZM210 19V21H211V19H210ZM210 23V25H211V23H210ZM210 27V29H211V27H210ZM210 31V33H211V31H210ZM210 35V37H211V35H210ZM210 39V41H211V39H210ZM210 43V45H211V43H210ZM210 47V49H211V47H210ZM210 51V53H211V51H210ZM210 55V57H211V55H210ZM210 59V61H211V59H210ZM210 63V65H211V63H210ZM210 67V69H211V67H210ZM210 71V73H211V71H210ZM210 75V77H211V75H210ZM210 79V81H211V79H210ZM210 83V85H211V83H210ZM210 87V89H211V87H210ZM210 91V93H211V91H210ZM210 95V97H211V95H210Z" fill="#DA0F47"/>
</svg>
