<svg width="24" height="24" viewBox="0 0 24 24" fill="none" xmlns="http://www.w3.org/2000/svg">
<mask id="path-1-inside-1_941_48813" fill="white">
<path fill-rule="evenodd" clip-rule="evenodd" d="M12 22C12 22 20 16.2105 20 9.89474C20 5.53459 16.4183 2 12 2C7.58172 2 4 5.53459 4 9.89474C4 16.2105 12 22 12 22ZM12 13C13.6569 13 15 11.6569 15 10C15 8.34315 13.6569 7 12 7C10.3431 7 9 8.34315 9 10C9 11.6569 10.3431 13 12 13Z"/>
</mask>
<path d="M12 22L11.4137 22.8101L12 23.2344L12.5863 22.8101L12 22ZM19 9.89474C19 12.6647 17.2199 15.4511 15.2545 17.6493C14.2918 18.726 13.326 19.6158 12.6 20.2367C12.2377 20.5466 11.937 20.7879 11.7287 20.9504C11.6246 21.0316 11.5437 21.0931 11.4898 21.1334C11.4629 21.1536 11.4428 21.1685 11.43 21.178C11.4235 21.1827 11.4189 21.1861 11.4162 21.1881C11.4148 21.1891 11.414 21.1897 11.4135 21.19C11.4133 21.1902 11.4132 21.1902 11.4133 21.1902C11.4133 21.1902 11.4134 21.1901 11.4134 21.1901C11.4136 21.19 11.4137 21.1899 12 22C12.5863 22.8101 12.5865 22.8099 12.5868 22.8098C12.5869 22.8097 12.5872 22.8094 12.5875 22.8093C12.588 22.8089 12.5886 22.8084 12.5894 22.8079C12.5909 22.8068 12.5929 22.8053 12.5954 22.8035C12.6003 22.7999 12.6072 22.7948 12.6159 22.7884C12.6333 22.7756 12.6582 22.7572 12.6898 22.7334C12.7532 22.6859 12.8442 22.6168 12.9588 22.5274C13.188 22.3486 13.5123 22.0883 13.9 21.7567C14.674 21.0947 15.7082 20.1425 16.7455 18.9823C18.7801 16.7068 21 13.4406 21 9.89474H19ZM12 3C15.8785 3 19 6.09932 19 9.89474H21C21 4.96986 16.958 1 12 1V3ZM5 9.89474C5 6.09932 8.12148 3 12 3V1C7.04197 1 3 4.96986 3 9.89474H5ZM12 22C12.5863 21.1899 12.5864 21.19 12.5866 21.1901C12.5866 21.1901 12.5867 21.1902 12.5867 21.1902C12.5868 21.1902 12.5867 21.1902 12.5865 21.19C12.586 21.1897 12.5852 21.1891 12.5838 21.1881C12.5811 21.1861 12.5765 21.1827 12.57 21.178C12.5572 21.1685 12.5371 21.1536 12.5102 21.1334C12.4563 21.0931 12.3754 21.0316 12.2713 20.9504C12.063 20.7879 11.7623 20.5466 11.4 20.2367C10.674 19.6158 9.70818 18.726 8.74547 17.6493C6.78008 15.4511 5 12.6647 5 9.89474H3C3 13.4406 5.21993 16.7068 7.25453 18.9823C8.29182 20.1425 9.32605 21.0947 10.1 21.7567C10.4877 22.0883 10.812 22.3486 11.0412 22.5274C11.1558 22.6168 11.2468 22.6859 11.3102 22.7334C11.3418 22.7572 11.3667 22.7756 11.3841 22.7884C11.3928 22.7948 11.3997 22.7999 11.4046 22.8035C11.4071 22.8053 11.4091 22.8068 11.4106 22.8079C11.4114 22.8084 11.412 22.8089 11.4125 22.8093C11.4128 22.8094 11.4131 22.8097 11.4132 22.8098C11.4135 22.8099 11.4137 22.8101 12 22ZM14 10C14 11.1046 13.1046 12 12 12V14C14.2091 14 16 12.2091 16 10H14ZM12 8C13.1046 8 14 8.89543 14 10H16C16 7.79086 14.2091 6 12 6V8ZM10 10C10 8.89543 10.8954 8 12 8V6C9.79086 6 8 7.79086 8 10H10ZM12 12C10.8954 12 10 11.1046 10 10H8C8 12.2091 9.79086 14 12 14V12Z" fill="black" mask="url(#path-1-inside-1_941_48813)"/>
</svg>
