<svg width="48" height="48" viewBox="0 0 48 48" fill="none" xmlns="http://www.w3.org/2000/svg">
<path d="M15.25 27.4375C17.1485 27.4375 18.6875 25.8985 18.6875 24C18.6875 22.1015 17.1485 20.5625 15.25 20.5625C13.3515 20.5625 11.8125 22.1015 11.8125 24C11.8125 25.8985 13.3515 27.4375 15.25 27.4375Z" stroke="black" stroke-width="1.5"/>
<path d="M32.75 18.0625C34.6485 18.0625 36.1875 16.5235 36.1875 14.625C36.1875 12.7265 34.6485 11.1875 32.75 11.1875C30.8515 11.1875 29.3125 12.7265 29.3125 14.625C29.3125 16.5235 30.8515 18.0625 32.75 18.0625Z" stroke="black" stroke-width="1.5"/>
<path d="M32.75 36.8125C34.6485 36.8125 36.1875 35.2735 36.1875 33.375C36.1875 31.4765 34.6485 29.9375 32.75 29.9375C30.8515 29.9375 29.3125 31.4765 29.3125 33.375C29.3125 35.2735 30.8515 36.8125 32.75 36.8125Z" stroke="black" stroke-width="1.5"/>
<path d="M18.4629 25.9251L29.7379 32.8251M18.4629 22.7501L29.7379 16.5376" stroke="black" stroke-width="1.5"/>
</svg>
