<svg width="241" height="100" viewBox="0 0 241 100" fill="none" xmlns="http://www.w3.org/2000/svg">
<path fill-rule="evenodd" clip-rule="evenodd" d="M0.5 10C0.5 4.47716 4.97715 0 10.5 0H30.5V1H31.5V0H210.5V1H211.5V0H230.5C236.023 0 240.5 4.47715 240.5 10V38C233.873 38 228.5 43.3726 228.5 50C228.5 56.6274 233.873 62 240.5 62V90C240.5 95.5228 236.023 100 230.5 100H211.5V99H210.5V100H31.5V99H30.5V100H10.5C4.97716 100 0.5 95.5229 0.5 90V62C7.12742 62 12.5 56.6274 12.5 50C12.5 43.3726 7.12742 38 0.5 38V10ZM30.5 5V3H31.5V5H30.5ZM30.5 9V7H31.5V9H30.5ZM30.5 13V11H31.5V13H30.5ZM30.5 17V15H31.5V17H30.5ZM30.5 21V19H31.5V21H30.5ZM30.5 25V23H31.5V25H30.5ZM30.5 29V27H31.5V29H30.5ZM30.5 33V31H31.5V33H30.5ZM30.5 37V35H31.5V37H30.5ZM30.5 41V39H31.5V41H30.5ZM30.5 45V43H31.5V45H30.5ZM30.5 49V47H31.5V49H30.5ZM30.5 53V51H31.5V53H30.5ZM30.5 57V55H31.5V57H30.5ZM30.5 61V59H31.5V61H30.5ZM30.5 65V63H31.5V65H30.5ZM30.5 69V67H31.5V69H30.5ZM30.5 73V71H31.5V73H30.5ZM30.5 77V75H31.5V77H30.5ZM30.5 81V79H31.5V81H30.5ZM30.5 85V83H31.5V85H30.5ZM30.5 89V87H31.5V89H30.5ZM30.5 93V91H31.5V93H30.5ZM30.5 97V95H31.5V97H30.5ZM210.5 3V5H211.5V3H210.5ZM210.5 7V9H211.5V7H210.5ZM210.5 11V13H211.5V11H210.5ZM210.5 15V17H211.5V15H210.5ZM210.5 19V21H211.5V19H210.5ZM210.5 23V25H211.5V23H210.5ZM210.5 27V29H211.5V27H210.5ZM210.5 31V33H211.5V31H210.5ZM210.5 35V37H211.5V35H210.5ZM210.5 39V41H211.5V39H210.5ZM210.5 43V45H211.5V43H210.5ZM210.5 47V49H211.5V47H210.5ZM210.5 51V53H211.5V51H210.5ZM210.5 55V57H211.5V55H210.5ZM210.5 59V61H211.5V59H210.5ZM210.5 63V65H211.5V63H210.5ZM210.5 67V69H211.5V67H210.5ZM210.5 71V73H211.5V71H210.5ZM210.5 75V77H211.5V75H210.5ZM210.5 79V81H211.5V79H210.5ZM210.5 83V85H211.5V83H210.5ZM210.5 87V89H211.5V87H210.5ZM210.5 91V93H211.5V91H210.5ZM210.5 95V97H211.5V95H210.5Z" fill="black"/>
</svg>
