<svg width="167" height="40" viewBox="0 0 167 40" fill="none" xmlns="http://www.w3.org/2000/svg">
<path d="M25.714 24.306V25.496H37.166V24.306H25.714ZM27.002 15.304V21.968H35.85V15.304H34.422V17.516H28.43V15.304H27.002ZM28.43 18.664H34.422V20.806H28.43V18.664ZM46.5169 19.308H47.9169V23.858H49.2889V14.422H47.9169V18.132H46.5169V14.66H45.1729V23.522H46.5169V19.308ZM44.5009 20.54C43.1849 20.792 42.0369 20.862 40.5249 20.876V19.252H43.8849V15.486H39.0969V16.634H42.4849V18.188H39.1249V22.038H39.9789C41.8269 22.038 43.1009 21.982 44.6269 21.702L44.5009 20.54ZM42.3869 25.664V22.976H40.9309V26.84H49.6389V25.664H42.3869ZM61.6358 20.4H54.3138V16.718H61.5378V15.542H52.8718V21.562H61.6358V20.4ZM51.4718 24.264V25.454H62.9378V24.264H51.4718ZM77.9393 14.422H76.4833V20.96H77.9393V14.422ZM70.5753 16.382H72.3113V19.364C71.7373 19.392 71.1353 19.406 70.5753 19.42V16.382ZM75.3913 19.112C74.8453 19.182 74.2853 19.224 73.7113 19.266V16.382H74.8313V15.234H68.0413V16.382H69.1893V19.434C68.6713 19.448 68.1673 19.448 67.7052 19.448L67.8593 20.624C70.0573 20.61 72.9553 20.54 75.4613 20.134L75.3913 19.112ZM71.0233 25.832V24.726H77.9393V21.534H69.5673V22.654H76.5113V23.676H69.5813V26.966H78.3593V25.832H71.0233ZM88.9562 16.844H81.8302V19.994H90.6362V18.888H83.2442V17.88H90.3842V14.716H81.8022V15.836H88.9562V16.844ZM83.2722 24.166H88.9982V25.776H83.2722V24.166ZM81.8582 26.924H90.4122V23.018H81.8582V26.924ZM80.3462 20.904V22.052H91.8262V20.904H80.3462ZM99.1136 18.566H105.106V20.638H99.1136V18.566ZM102.824 24.348V21.8H106.534V15.276H105.106V17.404H99.1136V15.276H97.6856V21.8H101.382V24.348H96.3976V25.538H107.85V24.348H102.824ZM109.991 15.766V16.942H114.499C114.247 19.854 112.678 22.08 109.361 23.676L110.131 24.824C114.471 22.724 115.983 19.532 115.983 15.766H109.991ZM118.265 14.436V27.078H119.707V14.436H118.265Z" fill="white"/>
<path d="M127 22.4996L141 22.4997L135.162 18.5" stroke="white" stroke-linecap="round" stroke-linejoin="round"/>
<rect x="0.5" y="0.5" width="166" height="39" rx="19.5" stroke="white"/>
</svg>
