<svg width="20" height="20" viewBox="0 0 20 20" fill="none" xmlns="http://www.w3.org/2000/svg">
<g id="icn_eye_off">
<path id="icon" fill-rule="evenodd" clip-rule="evenodd" d="M2.25594 1.07739L1.07743 2.2559L4.46478 5.64325C4.14923 5.90477 3.83695 6.18561 3.52811 6.48427C2.83709 7.15252 2.21194 7.86595 1.66161 8.57967C1.32952 9.01035 1.09375 9.34914 0.964657 9.55098L0.67749 9.99998L0.964657 10.449C1.09375 10.6508 1.32952 10.9896 1.66161 11.4203C2.21194 12.134 2.83709 12.8474 3.52811 13.5157C5.55362 15.4745 7.72706 16.6666 10 16.6666C11.4341 16.6666 12.8286 16.1921 14.1713 15.3498L17.7441 18.9226L18.9226 17.7441L2.25594 1.07739ZM12.9539 14.1324L11.6933 12.8718C11.1971 13.165 10.6182 13.3333 10 13.3333C8.15907 13.3333 6.66669 11.8409 6.66669 9.99998C6.66669 9.38181 6.83496 8.80294 7.1282 8.30667L5.64979 6.82826C5.32696 7.0886 5.00567 7.37392 4.68672 7.68236C4.05822 8.29015 3.48534 8.94391 2.98148 9.59738C2.87265 9.73851 2.77209 9.87317 2.68016 9.99998C2.77209 10.1268 2.87265 10.2615 2.98148 10.4026C3.48534 11.0561 4.05822 11.7098 4.68672 12.3176C6.43126 14.0047 8.24579 15 10 15C10.9735 15 11.9655 14.6935 12.9539 14.1324ZM8.3898 9.56828C8.35298 9.70597 8.33335 9.85068 8.33335 9.99998C8.33335 10.9205 9.07954 11.6666 10 11.6666C10.1493 11.6666 10.294 11.647 10.4317 11.6102L8.3898 9.56828ZM16.7484 13.2424L15.5699 12.0639C16.0984 11.5297 16.5841 10.966 17.0186 10.4026C17.1274 10.2615 17.2279 10.1268 17.3199 9.99998C17.2279 9.87317 17.1274 9.73851 17.0186 9.59738C16.5147 8.94391 15.9418 8.29015 15.3133 7.68236C13.5688 5.99529 11.7542 4.99998 10 4.99998C9.56477 4.99998 9.12581 5.06125 8.68512 5.17916L7.36681 3.86085C8.22718 3.5178 9.1059 3.33332 10 3.33332C12.273 3.33332 14.4464 4.5255 16.4719 6.48427C17.1629 7.15252 17.7881 7.86595 18.3384 8.57967C18.6705 9.01035 18.9063 9.34914 19.0354 9.55098L19.3225 9.99998L19.0354 10.449C18.9063 10.6508 18.6705 10.9896 18.3384 11.4203C17.8625 12.0376 17.3305 12.6546 16.7484 13.2424Z" fill="#AAAAAA"/>
</g>
</svg>
