<svg width="20" height="20" viewBox="0 0 20 20" fill="none" xmlns="http://www.w3.org/2000/svg">
<g clip-path="url(#clip0_456_3600)">
<path fill-rule="evenodd" clip-rule="evenodd" d="M6.66675 7.50002C6.66675 4.27836 9.27842 1.66669 12.5001 1.66669C15.7217 1.66669 18.3334 4.27836 18.3334 7.50002C18.3334 10.7217 15.7217 13.3334 12.5001 13.3334H10.8334V15H9.16675V16.6667H7.50008V18.3334H1.66675V13.8215L6.79009 8.69817C6.70838 8.30708 6.66675 7.90611 6.66675 7.50002ZM9.16675 13.3334V11.6667H12.5001C14.8013 11.6667 16.6667 9.80121 16.6667 7.50002C16.6667 5.19883 14.8013 3.33335 12.5001 3.33335C10.1989 3.33335 8.33341 5.19883 8.33341 7.50002C8.33341 7.91555 8.39399 8.322 8.51181 8.71074L8.65666 9.18862L3.33341 14.5119V16.6667H5.83341V15H7.50008V13.3334H9.16675ZM10.8334 7.50002C10.8334 8.4205 11.5796 9.16669 12.5001 9.16669C13.4206 9.16669 14.1667 8.4205 14.1667 7.50002C14.1667 6.57955 13.4206 5.83335 12.5001 5.83335C11.5796 5.83335 10.8334 6.57955 10.8334 7.50002Z" fill="black"/>
</g>
<defs>
<clipPath id="clip0_456_3600">
<rect width="20" height="20" fill="white"/>
</clipPath>
</defs>
</svg>
