<svg width="20" height="20" viewBox="0 0 20 20" fill="none" xmlns="http://www.w3.org/2000/svg">
<g id="icn_eye_on">
<path id="icon" fill-rule="evenodd" clip-rule="evenodd" d="M10 3.33331C12.273 3.33331 14.4464 4.5255 16.4719 6.48427C17.1629 7.15252 17.7881 7.86594 18.3384 8.57967C18.6705 9.01035 18.9063 9.34914 19.0354 9.55098L19.3225 9.99998L19.0354 10.449C18.9063 10.6508 18.6705 10.9896 18.3384 11.4203C17.7881 12.134 17.1629 12.8474 16.4719 13.5157C14.4464 15.4745 12.273 16.6666 10 16.6666C7.72706 16.6666 5.55362 15.4745 3.52811 13.5157C2.83709 12.8474 2.21194 12.134 1.66161 11.4203C1.32952 10.9896 1.09375 10.6508 0.964657 10.449L0.67749 9.99998L0.964657 9.55098C1.09375 9.34914 1.32952 9.01035 1.66161 8.57967C2.21194 7.86594 2.83709 7.15252 3.52811 6.48427C5.55362 4.5255 7.72706 3.33331 10 3.33331ZM17.0186 9.59738C16.5147 8.94391 15.9418 8.29015 15.3133 7.68235C13.5688 5.99529 11.7542 4.99998 10 4.99998C8.24579 4.99998 6.43126 5.99529 4.68672 7.68235C4.05822 8.29015 3.48534 8.94391 2.98147 9.59738C2.87265 9.73851 2.77209 9.87317 2.68016 9.99998C2.77209 10.1268 2.87265 10.2615 2.98147 10.4026C3.48534 11.056 4.05822 11.7098 4.68672 12.3176C6.43126 14.0047 8.24579 15 10 15C11.7542 15 13.5688 14.0047 15.3133 12.3176C15.9418 11.7098 16.5147 11.056 17.0186 10.4026C17.1274 10.2615 17.2279 10.1268 17.3199 9.99998C17.2279 9.87317 17.1274 9.73851 17.0186 9.59738ZM6.66669 9.99998C6.66669 11.8409 8.15907 13.3333 10 13.3333C11.841 13.3333 13.3334 11.8409 13.3334 9.99998C13.3334 8.15903 11.841 6.66665 10 6.66665C8.15907 6.66665 6.66669 8.15903 6.66669 9.99998ZM11.6667 9.99998C11.6667 10.9205 10.9205 11.6666 10 11.6666C9.07954 11.6666 8.33335 10.9205 8.33335 9.99998C8.33335 9.0795 9.07954 8.33331 10 8.33331C10.9205 8.33331 11.6667 9.0795 11.6667 9.99998Z" fill="#AAAAAA"/>
</g>
</svg>
