<svg width="20" height="20" viewBox="0 0 20 20" fill="none" xmlns="http://www.w3.org/2000/svg">
<path fill-rule="evenodd" clip-rule="evenodd" d="M4.16667 1.33331H12.8452L17.5 5.98813V18C17.5 18.9205 16.7538 19.6666 15.8333 19.6666H4.16667C3.24619 19.6666 2.5 18.9205 2.5 18V2.99998C2.5 2.0795 3.24619 1.33331 4.16667 1.33331ZM10.8333 2.99998H4.16667V18H15.8333V7.99998H12.5C11.5795 7.99998 10.8333 7.25379 10.8333 6.33331V2.99998ZM12.5 3.34516V6.33331H15.4882L12.5 3.34516ZM6.66667 14.6666V13H11.6667V14.6666H6.66667ZM6.66667 9.66665V11.3333H13.3333V9.66665H6.66667Z" fill="#DA0F47"/>
</svg>
