<svg width="20" height="20" viewBox="0 0 20 20" fill="none" xmlns="http://www.w3.org/2000/svg">
<path fill-rule="evenodd" clip-rule="evenodd" d="M9.99992 19.6666C4.93731 19.6666 0.833252 15.5626 0.833252 10.5C0.833252 5.43737 4.93731 1.33331 9.99992 1.33331C15.0625 1.33331 19.1666 5.43737 19.1666 10.5C19.1666 15.5626 15.0625 19.6666 9.99992 19.6666ZM16.1662 14.7705C17.0071 13.5586 17.4999 12.0868 17.4999 10.5C17.4999 6.35784 14.1421 2.99998 9.99992 2.99998C5.85778 2.99998 2.49992 6.35784 2.49992 10.5C2.49992 12.0868 2.99274 13.5586 3.83367 14.7705C4.77155 13.5317 6.97542 13 9.99992 13C13.0244 13 15.2283 13.5317 16.1662 14.7705ZM14.9705 16.1165C14.7266 15.2394 12.9744 14.6666 9.99992 14.6666C7.02544 14.6666 5.27326 15.2394 5.02935 16.1165C6.35267 17.2885 8.0932 18 9.99992 18C11.9066 18 13.6472 17.2885 14.9705 16.1165ZM9.99992 5.49998C7.9825 5.49998 6.66658 6.96311 6.66658 8.83331C6.66658 11.6895 8.13397 13 9.99992 13C11.8483 13 13.3333 11.733 13.3333 8.99998C13.3333 7.10129 12.0117 5.49998 9.99992 5.49998ZM8.33325 8.83331C8.33325 10.7244 9.01509 11.3333 9.99992 11.3333C10.9813 11.3333 11.6666 10.7486 11.6666 8.99998C11.6666 7.95866 11.013 7.16665 9.99992 7.16665C8.9447 7.16665 8.33325 7.8465 8.33325 8.83331Z" fill="#DA0F47"/>
</svg>
