<svg width="20" height="20" viewBox="0 0 20 20" fill="none" xmlns="http://www.w3.org/2000/svg">
<g clip-path="url(#clip0_1651_9713)">
<path fill-rule="evenodd" clip-rule="evenodd" d="M6.66699 7.50002C6.66699 4.27836 9.27867 1.66669 12.5003 1.66669C15.722 1.66669 18.3337 4.27836 18.3337 7.50002C18.3337 10.7217 15.722 13.3334 12.5003 13.3334H10.8337V15H9.16699V16.6667H7.50033V18.3334H1.66699V13.8215L6.79033 8.69817C6.70862 8.30708 6.66699 7.90611 6.66699 7.50002ZM9.16699 13.3334V11.6667H12.5003C14.8015 11.6667 16.667 9.80121 16.667 7.50002C16.667 5.19883 14.8015 3.33335 12.5003 3.33335C10.1991 3.33335 8.33366 5.19883 8.33366 7.50002C8.33366 7.91555 8.39423 8.322 8.51206 8.71074L8.6569 9.18862L3.33366 14.5119V16.6667H5.83366V15H7.50033V13.3334H9.16699ZM10.8337 7.50002C10.8337 8.4205 11.5799 9.16669 12.5003 9.16669C13.4208 9.16669 14.167 8.4205 14.167 7.50002C14.167 6.57955 13.4208 5.83335 12.5003 5.83335C11.5799 5.83335 10.8337 6.57955 10.8337 7.50002Z" fill="#DA0F47"/>
</g>
<defs>
<clipPath id="clip0_1651_9713">
<rect width="20" height="20" fill="white"/>
</clipPath>
</defs>
</svg>
