<svg width="20" height="20" viewBox="0 0 20 20" fill="none" xmlns="http://www.w3.org/2000/svg">
<g clip-path="url(#clip0_1651_10630)">
<path fill-rule="evenodd" clip-rule="evenodd" d="M15.8337 8.33331C15.8337 4.95067 13.9683 2.6029 11.5548 1.89807C11.4674 1.67195 11.3293 1.46173 11.1416 1.28534C10.5001 0.682638 9.50055 0.682638 8.85909 1.28534C8.67176 1.46134 8.53383 1.67102 8.44641 1.89658C6.02979 2.59834 4.16699 4.94097 4.16699 8.33331C4.16699 10.5282 3.72448 11.7581 2.90529 12.6494C2.76833 12.7984 2.39725 13.1398 2.14588 13.371C2.02695 13.4804 1.93482 13.5652 1.90696 13.5933L1.66699 13.8366V16.6784H6.74031C6.91186 17.5634 7.39207 18.1555 8.26049 18.6855C9.32878 19.3374 10.6719 19.3374 11.7402 18.6855C12.5066 18.2178 13.0204 17.499 13.2289 16.6784H18.3337V13.8366L18.0937 13.5933C18.0684 13.5676 17.98 13.4861 17.8645 13.3795L17.8645 13.3795C17.6139 13.1483 17.2355 12.7993 17.0965 12.6474C16.2767 11.752 15.8337 10.5205 15.8337 8.33331ZM11.4476 16.6784H8.48251C8.60024 16.8974 8.80092 17.0628 9.12867 17.2628C9.66388 17.5894 10.3368 17.5894 10.872 17.2628C11.1198 17.1116 11.3135 16.9114 11.4476 16.6784ZM15.8671 13.7728C16.0425 13.9644 16.4183 14.3145 16.667 14.5433V15.0117H3.33366V14.5436C3.58039 14.3176 3.95735 13.9677 4.1324 13.7772C5.24551 12.5661 5.83366 10.9315 5.83366 8.33331C5.83366 5.18323 7.77763 3.34363 10.0003 3.34363C12.2167 3.34363 14.167 5.19272 14.167 8.33331C14.167 10.9231 14.7553 12.5583 15.8671 13.7728Z" fill="#DA0F47"/>
</g>
<defs>
<clipPath id="clip0_1651_10630">
<rect width="20" height="20" fill="white"/>
</clipPath>
</defs>
</svg>
