<svg width="80" height="80" viewBox="0 0 80 80" fill="none" xmlns="http://www.w3.org/2000/svg">
<circle cx="40" cy="40" r="40" fill="#F4F4F4"/>
<path d="M40 18C27.8371 18 18 27.8371 18 40C18 52.1629 27.8371 62 40 62C52.1629 62 62 52.1629 62 40C62 27.8371 52.1629 18 40 18ZM30.5714 30.5714C32.3 30.5714 33.7143 31.9857 33.7143 33.7143C33.7143 35.4429 32.3 36.8571 30.5714 36.8571C28.8429 36.8571 27.4286 35.4429 27.4286 33.7143C27.4286 31.9857 28.8429 30.5714 30.5714 30.5714ZM49.4286 30.5714C51.1571 30.5714 52.5714 31.9857 52.5714 33.7143C52.5714 35.4429 51.1571 36.8571 49.4286 36.8571C47.7 36.8571 46.2857 35.4429 46.2857 33.7143C46.2857 31.9857 47.7 30.5714 49.4286 30.5714ZM48.7057 43.1114C49.7743 43.1743 50.8114 43.52 51.6914 44.0857C52.8543 44.8714 53.64 46.0029 54.0486 47.3229C55.18 49.4914 51.5029 50.7171 51.0943 48.2971C50.9057 47.6686 50.4657 47.0714 49.9 46.7257C49.3343 46.38 48.6743 46.16 48.0457 46.2229C47.1029 46.3171 46.0343 46.9457 44.8086 47.7C44.18 48.0771 43.4257 48.4543 42.64 48.7686C41.8543 49.1143 40.9743 49.3657 40 49.3657C39.0257 49.3657 38.1457 49.1143 37.36 48.7686C36.5743 48.4229 35.82 48.0771 35.1914 47.7C33.9657 46.9457 32.8971 46.3171 31.9543 46.2229C31.2943 46.16 30.6343 46.3486 30.1 46.7257C29.5657 47.1029 29.1257 47.6686 28.9057 48.2971C28.4971 50.7171 24.8514 49.4914 25.9514 47.3229C26.36 46.0029 27.1457 44.84 28.3086 44.0857C29.1886 43.52 30.1943 43.1743 31.2629 43.1114C31.6086 43.1114 31.9857 43.08 32.3314 43.1114C34.2486 43.3 35.6314 44.2429 36.8571 44.9657C37.4543 45.3429 37.9886 45.72 38.5229 45.94C39.0571 46.16 39.56 46.2229 40 46.2229C40.44 46.2229 40.9429 46.16 41.4771 45.94C42.0114 45.72 42.5457 45.3114 43.1429 44.9657C44.3371 44.2429 45.7514 43.2686 47.6686 43.1114C48.0143 43.08 48.36 43.1114 48.7057 43.1114V43.1114Z" fill="#666666"/>
</svg>
