<svg width="258" height="59" viewBox="0 0 258 59" fill="none" xmlns="http://www.w3.org/2000/svg">
<g clip-path="url(#clip0_2334_11985)">
<path d="M156.435 53.9511V55.3716H151.144V58.499H165.256V55.3716H159.964V53.9511H156.435Z" fill="white"/>
<path d="M233.452 44.1883V49.739H232.043V52.8664H233.452V58.4171H236.644V44.1883H233.452Z" fill="white"/>
<path d="M204.18 54.0085V58.4171H218.633V55.4412H207.709V54.0085H204.18Z" fill="white"/>
<path d="M212.919 50.4144V54.819H215.465V44.2702H212.919V47.7414H211.892L210.689 50.4144H212.919Z" fill="white"/>
<path d="M164.796 50.7583H155.118V50.1238H164.796V44.5731H151.602V47.1601H161.263V47.7823H151.602V53.333H164.796V50.7583Z" fill="white"/>
<path d="M222.638 45.0807V48.208V49.739V52.8664V54.3932V57.5206H231.978V54.3932H225.712V52.8664H230.679V49.739H225.712V48.208H231.978V45.0807H225.712H222.638Z" fill="white"/>
<path d="M144.674 44.1883V49.4197H143.915V44.1883H141.072V58.4171H143.915V52.5594H144.674V58.4171H147.513V44.1883H144.674Z" fill="white"/>
<path d="M248.258 43.8158H248.189H248.12H248.055H248.039H248.014H247.958H247.864H247.771L247.673 43.8281H247.58L247.47 43.8444H247.377L247.283 43.8567L247.186 43.869L247.093 43.8854L246.999 43.8977L246.902 43.9099L246.808 43.9263L246.715 43.9386L246.617 43.955L246.536 43.9795L246.443 43.9959L246.349 44.0205L246.252 44.0491L246.171 44.0614L246.077 44.0901L245.984 44.1187L245.903 44.1474L245.805 44.1719L245.724 44.2129L245.631 44.2415L245.549 44.2702L245.456 44.3111L245.375 44.3398L245.294 44.3807L245.2 44.4093L245.115 44.4503L245.034 44.4912L244.952 44.5321L244.875 44.5731L244.778 44.614L244.697 44.655L244.615 44.6959L244.546 44.7532L244.469 44.7941L244.384 44.8351L244.307 44.8883L244.226 44.9456L244.156 44.9865L244.075 45.0397L243.994 45.097L243.925 45.1503L243.844 45.2076L243.779 45.2608L243.698 45.3181L243.629 45.3713L243.56 45.4286L243.495 45.4818L243.413 45.5514L243.344 45.6046L243.275 45.6619L243.21 45.7315L243.141 45.797L243.072 45.8543L243.019 45.9239L242.95 45.9935L242.885 46.059L242.829 46.1163L242.764 46.1859L242.695 46.2514L242.642 46.3374L242.585 46.4029L242.52 46.4724L242.463 46.542L242.41 46.6116L242.357 46.6935L242.301 46.7631L242.248 46.8449L242.195 46.9145L242.138 46.9964L242.085 47.066L242.033 47.1479L241.992 47.2297L241.935 47.2993L241.895 47.3812L241.842 47.4671L241.801 47.549L241.761 47.6309L241.708 47.7128L241.667 47.7946L241.626 47.8765L241.586 47.9625L241.545 48.0443L241.517 48.1262L241.476 48.2244L241.436 48.3063L241.395 48.3882L241.367 48.4864L241.342 48.5683L241.302 48.6624L241.273 48.7484L241.245 48.8425L241.22 48.9244L241.192 49.0227L241.164 49.1045L241.139 49.1987L241.111 49.2969L241.082 49.3952L241.07 49.477L241.042 49.5712L241.03 49.6694L241.017 49.7636L240.989 49.8618L240.977 49.9601L240.96 50.0542L240.948 50.1524L240.936 50.2466V50.3448L240.92 50.439L240.908 50.5372V50.6314L240.896 50.7296V50.8401V50.9343V51.0325V51.1308V51.2249V51.3355V51.4337L240.908 51.5278V51.6261L240.92 51.7202V51.8185L240.936 51.9126L240.948 52.0232L240.96 52.1214L240.977 52.2033L240.989 52.3015L241.001 52.3957L241.03 52.4939L241.042 52.588L241.058 52.6863L241.082 52.7804L241.111 52.8664L241.123 52.9606L241.151 53.0588L241.18 53.1529L241.204 53.2348L241.233 53.3331L241.261 53.4149L241.302 53.5132L241.326 53.595L241.354 53.6892L241.395 53.7751L241.423 53.857L241.464 53.9512L241.505 54.0371L241.529 54.119L241.57 54.2009L241.61 54.295L241.651 54.381L241.691 54.4628L241.748 54.5447L241.789 54.6266L241.83 54.7125L241.882 54.7944L241.923 54.8599L241.976 54.9459L242.016 55.0277L242.073 55.0973L242.126 55.1792L242.179 55.2611L242.236 55.3307L242.288 55.4125L242.341 55.4821L242.398 55.5517L242.451 55.6336L242.504 55.7032L242.561 55.7687L242.626 55.8382L242.682 55.9078L242.747 55.9774L242.804 56.047L242.869 56.1166L242.938 56.1862L242.991 56.2517L243.06 56.3213L243.129 56.3786L243.194 56.4441L243.263 56.5137L243.332 56.571L243.397 56.6242L243.466 56.6938L243.535 56.7511L243.616 56.8043L243.681 56.8575L243.75 56.9271L243.832 56.9844L243.901 57.0376L243.982 57.0786L244.047 57.1359L244.128 57.1891L244.209 57.2464L244.278 57.2873L244.36 57.3405L244.441 57.3815L244.522 57.4388L244.603 57.4797L244.684 57.5206L244.766 57.5616L244.847 57.6148L244.928 57.6598L245.009 57.7008L245.091 57.7253L245.172 57.7703L245.265 57.8113L245.346 57.8358L245.428 57.8768L245.525 57.9177L245.602 57.9464L245.7 57.975L245.781 58.0037L245.874 58.0446L245.956 58.0733L246.049 58.0978L246.146 58.1142L246.228 58.1388L246.321 58.1674L246.414 58.1961L246.512 58.2083L246.593 58.237L246.687 58.2493L246.78 58.2657L246.877 58.2779L246.971 58.3066L247.064 58.3189H247.162L247.255 58.3311L247.348 58.3475L247.446 58.3598H247.539L247.649 58.3762H247.742H247.836H247.933H248.027H248.039H248.055H248.067H248.108H248.177H248.242H248.299H248.364H248.433L248.502 58.3598H248.567H248.636L248.705 58.3475H248.77L248.839 58.3311H248.908L248.961 58.3189L249.03 58.3066H249.095L249.164 58.2902L249.233 58.2779L249.286 58.2657H249.351L249.42 58.2493L249.489 58.237L249.541 58.2247L249.61 58.2083L249.675 58.1961L249.744 58.1797L249.801 58.1551L249.866 58.1388L249.935 58.1265L249.988 58.1142L250.057 58.0855L250.11 58.0733L250.179 58.0569L250.248 58.0282L250.301 58.016L250.366 57.9873L250.423 57.975L250.492 57.9464L250.545 57.9177L250.609 57.9054L250.666 57.8768L250.731 57.8522L250.788 57.8236L250.841 57.7949L250.91 57.7826L250.963 57.754L251.032 57.7253L251.085 57.7008L251.137 57.6721L251.194 57.6435L251.259 57.6025L251.316 57.5739L251.369 57.5493L251.422 57.5206L251.491 57.492L251.543 57.4511L251.6 57.4224L251.653 57.3978L251.706 57.3569L251.763 57.3283L251.816 57.2873L251.868 57.2587L251.925 57.2177L251.978 57.1891L252.031 57.1481L252.088 57.1072L252.14 57.0663L252.193 57.0376L252.25 56.9967L252.303 56.9558L252.344 56.9148L252.396 56.8739L252.453 56.8329L252.506 56.792L252.547 56.7511L252.599 56.7061L252.656 56.6651L252.697 56.6242L252.75 56.5832L252.802 56.5423L252.843 56.5014L252.9 56.4604L252.94 56.4031L252.993 56.3622L253.034 56.3213L253.087 56.2681L253.127 56.2271L253.168 56.1698L253.225 56.1289L253.265 56.0757L253.306 56.0347L253.347 55.9774L253.399 55.9365L253.44 55.8792L253.481 55.826L253.521 55.785L253.562 55.7277L253.602 55.6745L253.643 55.6336L253.684 55.5763L253.724 55.523L253.765 55.4698L253.805 55.4125L253.846 55.3593L253.887 55.302L253.915 55.2488L253.956 55.1915L253.996 55.1383L254.037 55.081L254.061 55.0277L254.102 54.9704L254.143 54.9049L254.171 54.8476L254.212 54.7944L254.24 54.7371L254.281 54.6675L254.305 54.6143L254.333 54.557L254.374 54.4915L254.402 54.4342L254.415 54.4055V54.3933H254.427V54.381L254.443 54.3646V54.3523L254.455 54.34V54.3114L254.467 54.295L254.484 54.2705L254.496 54.2541V54.2295H254.508V54.2131V54.2009H254.524V54.1886V54.1722H254.536H254.524H254.508L254.496 54.1599H254.484H254.467L254.443 54.1436L254.402 54.1313L254.374 54.119H254.362H254.346L254.333 54.1026H254.321H254.305L254.293 54.0903L254.199 54.0617L254.159 54.0494L254.102 54.0371L254.061 54.0208L254.021 54.0085L253.98 53.9921L253.94 53.9675L253.899 53.9512L253.858 53.9389L253.818 53.9266L253.777 53.9102H253.736L253.696 53.8979L253.671 53.8857L253.631 53.8693L253.59 53.857L253.55 53.8406L253.521 53.8284L253.481 53.8161L253.452 53.7997H253.412L253.387 53.7874L253.359 53.7751L253.318 53.7588L253.29 53.7465H253.265L253.237 53.7342L253.209 53.7178H253.184L253.156 53.7056L253.127 53.6892H253.103L253.075 53.6769H253.062L253.034 53.6646L253.005 53.6482H252.993L252.965 53.636H252.953H252.94L252.912 53.6237H252.9L252.884 53.6073H252.871H252.859L252.843 53.595H252.831H252.819L252.802 53.5787H252.79H252.778L252.762 53.5664H252.75H252.737L252.721 53.5541H252.697L252.668 53.5377H252.656L252.64 53.5254H252.628H252.616L252.599 53.5132H252.587V53.5254V53.5377H252.575V53.5541L252.559 53.5664V53.5787L252.534 53.6073V53.6237L252.518 53.636V53.6482L252.506 53.6646V53.6769L252.478 53.7178L252.437 53.7874L252.384 53.8693L252.344 53.9512L252.291 54.0208L252.234 54.1026L252.181 54.1722L252.128 54.2541L252.071 54.3237L252.019 54.3933L251.966 54.4628L251.897 54.5324L251.844 54.602L251.775 54.6675L251.722 54.7371L251.653 54.8067L251.584 54.8599L251.531 54.9295L251.462 54.9868L251.397 55.0564L251.328 55.1096L251.259 55.1669L251.182 55.2201L251.113 55.2733L251.044 55.3307L250.963 55.3839L250.894 55.4412L250.829 55.4821L250.748 55.5353L250.666 55.5763L250.597 55.6336L250.516 55.6745L250.435 55.7154L250.354 55.7564L250.272 55.7973L250.191 55.8382L250.11 55.8669L250.029 55.9078L249.948 55.9488L249.866 55.9774L249.785 56.0061L249.704 56.047L249.623 56.0757L249.529 56.1002L249.448 56.1166L249.367 56.1412L249.273 56.1698L249.192 56.1862L249.095 56.2107L249.013 56.2271L248.92 56.2394L248.839 56.2517L248.745 56.2681L248.648 56.2803L248.567 56.2926L248.473 56.309H248.38L248.299 56.3213H248.201H248.108H248.067H248.055H248.039H247.998H247.933H247.864H247.795L247.73 56.309H247.649L247.58 56.2926H247.511L247.446 56.2803H247.377L247.308 56.2681L247.243 56.2517H247.174L247.105 56.2394L247.04 56.2271L246.971 56.2107L246.902 56.1985L246.849 56.1862L246.78 56.1575L246.715 56.1412L246.646 56.1289L246.577 56.1002L246.524 56.0879L246.455 56.0593L246.39 56.047L246.333 56.0184L246.268 56.0061L246.199 55.9774L246.146 55.9488L246.077 55.9242L246.025 55.8956L245.956 55.8669L245.903 55.8382L245.834 55.8137L245.781 55.785L245.724 55.7564L245.659 55.7277L245.602 55.6868L245.549 55.6622L245.48 55.6336L245.428 55.5926L245.375 55.564L245.322 55.523L245.265 55.4821L245.212 55.4535L245.16 55.4125L245.103 55.3716L245.05 55.3307L244.997 55.302L244.94 55.2611L244.887 55.2201L244.835 55.1792L244.794 55.1383L244.737 55.0973L244.684 55.04L244.644 54.9991L244.587 54.9581L244.534 54.9172L244.494 54.8599L244.453 54.819L244.4 54.778L244.36 54.7248L244.307 54.6839L244.266 54.6266L244.226 54.5734L244.185 54.5324L244.128 54.4751L244.087 54.4219L244.047 54.381L244.006 54.3237L243.966 54.2705L243.925 54.2131L243.901 54.1599L243.86 54.1026L243.819 54.0494L243.779 53.9921L243.75 53.9389L243.71 53.8857L243.669 53.8284L243.641 53.7751L243.6 53.7178L243.576 53.6646L243.547 53.595L243.507 53.5377L243.478 53.4845L243.454 53.4149L243.426 53.3617L243.385 53.3044L243.356 53.2348L243.332 53.1816L243.316 53.112L243.292 53.0588L243.263 52.9892L243.235 52.9196L243.21 52.8664L243.194 52.7968L243.17 52.7272L243.153 52.6699L243.129 52.6044L243.113 52.5348L243.088 52.4652L243.072 52.412L243.06 52.3424L243.048 52.2729L243.032 52.2033L243.019 52.1337L243.007 52.0641L242.991 51.9986L242.979 51.929L242.967 51.8594V51.7898L242.95 51.7202L242.938 51.6506V51.5852L242.926 51.5156V51.446V51.3764L242.91 51.3068V51.2249V51.1553V51.0898V51.0203V50.9507V50.8811L242.926 50.7992V50.7296V50.66L242.938 50.5904V50.525L242.95 50.4554L242.967 50.3858V50.3162L242.979 50.2466L242.991 50.177L243.007 50.1115L243.019 50.0419L243.032 49.9723L243.048 49.9027L243.06 49.8332L243.072 49.7799L243.101 49.7104L243.113 49.6408L243.141 49.5712L243.153 49.518L243.182 49.4484L243.194 49.3788L243.222 49.3256L243.251 49.256L243.263 49.1864L243.292 49.1332L243.316 49.0636L243.344 49.0063L243.373 48.9408L243.397 48.8835L243.426 48.8139L243.454 48.7607L243.478 48.7034L243.519 48.6338L243.547 48.5806L243.576 48.5274L243.616 48.47L243.641 48.4005L243.681 48.3472L243.71 48.2899L243.75 48.2367L243.791 48.1794L243.832 48.1262L243.86 48.073L243.901 48.0157L243.941 47.9625L243.982 47.9051L244.018 47.8642L244.063 47.811L244.104 47.7537L244.144 47.7005L244.185 47.6595L244.238 47.6022L244.278 47.549L244.319 47.5081L244.372 47.4508L244.412 47.4098L244.453 47.3689L244.51 47.3157L244.546 47.2707L244.603 47.2297L244.644 47.1765L244.697 47.1356L244.749 47.0946L244.806 47.0537L244.847 47.0128L244.9 46.9677L244.952 46.9268L245.009 46.8859L245.062 46.8449L245.115 46.804L245.172 46.7754L245.225 46.7344L245.277 46.6935L245.334 46.6648L245.387 46.6239L245.44 46.5993L245.497 46.5543L245.566 46.5297L245.618 46.5011L245.671 46.4602L245.74 46.4315L245.793 46.4029L245.846 46.3783L245.915 46.3496L245.968 46.321L246.037 46.2923L246.09 46.2678L246.159 46.2391L246.211 46.2105L246.28 46.1859L246.349 46.1695L246.402 46.145L246.471 46.1286L246.536 46.0999L246.593 46.0877L246.658 46.059L246.727 46.0467L246.796 46.0344L246.861 46.0181L246.93 45.9935L246.983 45.9771L247.052 45.9649L247.121 45.9485H247.186L247.255 45.9362L247.324 45.9239L247.389 45.9075H247.458L247.527 45.8953H247.592L247.673 45.883H247.742H247.811H247.876L247.945 45.8666H248.014H248.039H248.055H248.067H248.108L248.189 45.883H248.27H248.352H248.433L248.514 45.8953L248.595 45.9075H248.664L248.745 45.9239L248.827 45.9362L248.908 45.9485L248.989 45.9649L249.054 45.9771L249.135 45.9935L249.217 46.0058L249.286 46.0344L249.367 46.0467L249.436 46.0754L249.517 46.0877L249.598 46.1163L249.663 46.145L249.732 46.1695L249.814 46.1859L249.878 46.2268L249.964 46.2514L250.029 46.28L250.098 46.3087L250.179 46.3374L250.248 46.3783L250.313 46.4029L250.382 46.4438L250.447 46.4888L250.516 46.5134L250.585 46.5543L250.654 46.5993L250.719 46.6403L250.788 46.6812L250.857 46.7221L250.922 46.7631L250.975 46.8163L251.044 46.8572L251.113 46.9023L251.166 46.9555L251.235 47.0128L251.288 47.0537L251.357 47.1069L251.41 47.1601L251.479 47.2174L251.531 47.2584L251.584 47.3157L251.641 47.3689L251.694 47.4385L251.747 47.4917L251.803 47.549L251.856 47.6022L251.909 47.6718L251.966 47.725L252.019 47.7946L252.059 47.8519L252.112 47.9174L252.128 47.9338V47.9461H252.112H252.1H252.088H252.071H252.059H252.047H252.031H252.006H251.99H251.966H251.954H251.925H251.909H251.885H251.856H251.828H251.787H251.734H251.682H251.56H251.503H251.45H251.397H251.34H251.328H251.3H251.275H251.247H251.235H251.206H251.182H251.166H251.154H251.125H251.113H251.097H251.085H251.072H251.056H251.044H251.032H251.016L251.032 47.9625V47.9747L251.044 47.987L251.056 48.0034L251.072 48.0157V48.032L251.085 48.0443L251.097 48.073L251.113 48.0853L251.125 48.1139L251.137 48.1262L251.154 48.1548L251.166 48.1671L251.182 48.1958L251.194 48.2244L251.206 48.249L251.235 48.2777L251.247 48.3063L251.275 48.335L251.288 48.3759L251.3 48.4005L251.328 48.4291L251.357 48.47L251.369 48.4987L251.397 48.5396L251.422 48.5683L251.438 48.6092L251.462 48.6502L251.491 48.6911L251.519 48.7197L251.543 48.7607L251.572 48.8016L251.584 48.8425L251.613 48.8835L251.641 48.9244L251.665 48.9653L251.694 49.0227L251.734 49.0636L251.787 49.1455L251.844 49.2437L251.897 49.3256L251.966 49.4197L252.019 49.518L252.088 49.6121L252.14 49.7104L252.262 49.9027L252.384 50.0951L252.453 50.1934L252.506 50.2875L252.575 50.3735L252.628 50.4676L252.681 50.5659L252.75 50.6478L252.778 50.6887L252.802 50.7419L252.831 50.7828L252.859 50.8238L252.884 50.8688L252.912 50.9097L252.94 50.9507L252.965 50.9916L252.981 51.0325L253.005 51.0735L253.034 51.1021L253.062 51.1431L253.087 51.184L253.103 51.2126L253.127 51.2536L253.156 51.2822L253.168 51.3232L253.196 51.3477L253.209 51.3928L253.237 51.4173L253.249 51.446L253.265 51.4746L253.29 51.4992L253.306 51.5278L253.318 51.5565L253.33 51.5852L253.359 51.6097L253.371 51.6261L253.387 51.6506L253.399 51.667V51.6957L253.412 51.708L253.428 51.7202L253.44 51.7366V51.7489L253.452 51.7612V51.7775H253.468V51.7898H253.481V51.8062L253.493 51.7898V51.7775L253.509 51.7612L253.521 51.7489L253.533 51.7366V51.708L253.55 51.6957L253.562 51.6793L253.574 51.6506L253.59 51.6384L253.602 51.6097L253.615 51.5974L253.631 51.5688L253.643 51.5442L253.655 51.5156L253.684 51.4869L253.696 51.4583L253.712 51.4337L253.736 51.405L253.753 51.3764L253.765 51.3355L253.793 51.3068L253.805 51.2659L253.834 51.2372L253.858 51.1963L253.875 51.1717L253.899 51.1308L253.927 51.0898L253.956 51.0448L253.968 51.0039L253.996 50.9629L254.021 50.9343L254.049 50.8934L254.078 50.8401L254.102 50.7992L254.13 50.7583L254.159 50.7173L254.212 50.6314L254.264 50.5372L254.321 50.439L254.374 50.3571L254.427 50.263L254.496 50.1647L254.549 50.0706L254.67 49.8741L254.792 49.6817L254.849 49.5876L254.902 49.4893L254.955 49.4074L255.024 49.3092L255.077 49.215L255.133 49.1332L255.186 49.0349L255.215 48.994L255.239 48.9531L255.267 48.9121L255.296 48.8712L255.32 48.8303L255.332 48.7893L255.361 48.7484L255.389 48.7034L255.418 48.6624L255.442 48.6215L255.458 48.5928L255.483 48.5519L255.511 48.5274L255.523 48.4864L255.552 48.4578L255.564 48.4168L255.592 48.3882L255.605 48.3472L255.621 48.3186L255.645 48.2899L255.657 48.2654L255.674 48.2367L255.702 48.2081L255.714 48.1794L255.726 48.1671L255.739 48.1385L255.755 48.1139L255.767 48.0975L255.783 48.073V48.0566L255.795 48.0443L255.808 48.032L255.824 48.0157V48.0034L255.836 47.987V47.9747H255.848V47.9625V47.9461H255.86H255.848H255.836H255.824H255.808H255.795H255.783H255.755H255.739H255.714H255.702H255.674H255.645H255.621H255.592H255.564H255.54H255.511H255.483H255.442H255.418H255.389H255.32H255.255H255.186H255.052H254.983H254.914H254.89H254.849H254.821H254.792H254.768H254.74H254.711H254.687H254.658H254.642H254.618H254.606H254.577H254.565H254.549H254.536H254.524H254.508H254.496L254.484 47.9338L254.455 47.8642L254.427 47.811L254.386 47.7414L254.362 47.6841L254.333 47.6145L254.293 47.5613L254.264 47.5081L254.224 47.4385L254.199 47.3812L254.159 47.328L254.13 47.2584L254.09 47.2052L254.049 47.1479L254.021 47.0946L253.98 47.0373L253.94 46.9841L253.899 46.9268L253.858 46.8736L253.818 46.804L253.777 46.7631L253.753 46.7099L253.712 46.6526L253.655 46.5993L253.615 46.542L253.574 46.4888L253.533 46.4315L253.493 46.3906L253.452 46.3374L253.412 46.28L253.359 46.2268L253.318 46.1859L253.278 46.1286L253.225 46.0877L253.184 46.0344L253.127 45.9935L253.087 45.9362L253.046 45.8953L252.993 45.838L252.94 45.797L252.9 45.7561L252.843 45.7029L252.802 45.6619L252.75 45.621L252.697 45.5801L252.656 45.5228L252.599 45.4818L252.547 45.4409L252.494 45.4L252.437 45.359L252.396 45.3181L252.344 45.2731L252.291 45.2321L252.234 45.1912L252.181 45.1666L252.128 45.1216L252.071 45.0807L252.019 45.0397L251.966 45.0152L251.909 44.9701L251.844 44.9292L251.787 44.9047L251.734 44.8637L251.682 44.8351L251.625 44.7941L251.572 44.7655L251.503 44.7245L251.45 44.6959L251.397 44.6713L251.328 44.6263L251.275 44.6017L251.219 44.5731L251.154 44.5444L251.097 44.5158L251.044 44.4912L250.975 44.4626L250.922 44.4339L250.857 44.4093L250.8 44.3807L250.731 44.352L250.679 44.3234L250.609 44.2988L250.545 44.2824L250.492 44.2538L250.423 44.2292L250.366 44.2129L250.301 44.1883L250.232 44.1719L250.179 44.1474L250.11 44.131L250.041 44.1064L249.988 44.0901L249.923 44.0778L249.854 44.0491L249.785 44.0368L249.72 44.0205L249.663 44.0082L249.598 43.9959L249.529 43.9795L249.46 43.9673L249.395 43.955L249.338 43.9386L249.273 43.9263L249.204 43.9099L249.135 43.8977L249.07 43.8854H249.001L248.932 43.869L248.867 43.8567H248.798L248.729 43.8444H248.664H248.595L248.526 43.8281H248.461H248.392L248.323 43.8158H248.258Z" fill="white"/>
<path d="M172.931 50.7583V55.3716H168.626V58.499H182.742V55.3716H176.447V50.7583H172.931Z" fill="white"/>
<path d="M139 44.6959H135.833L132.966 52.6167H136.604L134.643 58.0569H137.811L140.666 50.1524H137.039L139 44.6959Z" fill="white"/>
<path d="M178.75 53.5827H182.283V44.5731H178.75H169.085V47.7004H178.75V53.5827Z" fill="white"/>
<path d="M189.902 52.8664L191.266 49.6571L192.472 52.8664H196.249L194.596 48.4414H191.782L192.119 47.6309H195.924V44.5321H193.041V43.3901H189.345V44.5321H186.45V47.6309H188.346L186.125 52.8664H189.902Z" fill="white"/>
<path d="M186.206 58.499H200.184V53.4845H186.206V58.499ZM189.589 55.7564H196.801V56.6938H189.589V55.7564Z" fill="white"/>
<path d="M200.188 44.2702H196.655V52.8664H200.188V44.2702Z" fill="white"/>
<path d="M218.633 44.2702H216.087V54.819H218.633V44.2702Z" fill="white"/>
<path d="M205.463 53.4558H208.741L211.311 47.7414H207.575L208.887 44.7122H205.626L203.043 50.4267H206.791L205.463 53.4558Z" fill="white"/>
<path d="M188.654 12.9348H190.876V32.1617H188.654V38.6212H209.455V32.1617H207.233V12.9348H209.455V5.75903H188.654V12.9348V12.9348ZM197.706 12.9348H200.387V32.1617H197.706V12.9348Z" fill="white"/>
<path d="M144.349 32.1781L144.337 32.0799L144.325 31.9816L144.312 31.8834L144.3 31.7852L144.288 31.6869L144.276 31.5887L144.264 31.5068L144.235 31.4086L144.223 31.3267L144.195 31.2284L144.166 31.1302L144.138 31.0483L144.109 30.9665L144.081 30.8682L144.053 30.7864L144.024 30.7045L143.984 30.6226L143.943 30.5244L143.915 30.4425L143.874 30.3606L143.833 30.2788L143.793 30.1969L143.74 30.1273L143.699 30.0454L143.646 29.9636L143.606 29.8817L143.553 29.8121L143.5 29.7302L143.447 29.6484L143.395 29.5788L143.342 29.4969L143.273 29.4273L143.204 29.3577L143.151 29.2759L143.082 29.2063L143.013 29.1367L142.944 29.0671L142.863 28.9975L142.794 28.9279L142.712 28.8583L142.631 28.7888L142.55 28.7192L142.469 28.6496L142.388 28.5923L142.306 28.5227L142.213 28.4531L142.132 28.3958L142.038 28.3262L141.945 28.273L141.851 28.2034L141.742 28.1461L141.648 28.0929L141.539 28.0356L141.429 27.966L141.32 27.9087L141.21 27.8554L141.1 27.7981L140.991 27.7449L140.869 27.6876L140.747 27.6467L140.625 27.5935L140.503 27.5362L140.381 27.4829L140.247 27.442L140.126 27.3847L139.992 27.3438L139.858 27.2906L139.724 27.2496L139.573 27.2087L139.439 27.1677L139.289 27.1145L139.139 27.0736L138.988 27.0327L138.838 26.9917L138.757 26.9795L138.676 26.9508L138.607 26.9385L138.526 26.9099L138.444 26.8976L138.363 26.8689L138.282 26.8566L138.201 26.8444L138.119 26.8157L138.038 26.8034L137.957 26.7912L137.864 26.7625L137.782 26.7502L137.701 26.7379L137.608 26.7093L137.527 26.697L137.445 26.6847L137.352 26.6724L137.258 26.6602L137.177 26.6315L137.084 26.6192L137.003 26.6069L136.909 26.5947L136.816 26.5824L136.722 26.5701L136.629 26.5415L136.536 26.5292L136.442 26.5169L136.349 26.5046L136.255 26.4923L136.162 26.4801L136.069 26.4678L135.975 26.4555L135.866 26.4432L135.772 26.4309L135.663 26.4186L135.569 26.4064L135.476 26.3941L135.366 26.3818H135.256L135.163 26.3695L135.053 26.3572L134.944 26.345L134.834 26.3327L134.741 26.3204H134.631L134.521 26.3081L134.412 26.2958L134.302 26.2836L134.192 26.2713H134.071L133.961 26.259L133.851 26.2467H133.729L133.62 26.2344L133.51 26.2222H133.388L133.279 26.2099H133.157L133.035 26.1976L132.925 26.1853H132.804L132.682 26.173H132.56L132.438 26.1608H132.316L132.194 26.1485H132.073L131.951 26.1362H131.707L131.573 26.1239H131.451L131.317 26.1116H131.061L130.94 26.0994H130.546L130.412 26.0871H129.871L129.737 26.0748H126.907L126.773 26.0871H126.233L126.111 26.0994H125.705L125.583 26.1116H125.327L125.193 26.1239H125.071L124.95 26.1362H124.694L124.572 26.1485H124.45L124.328 26.1608H124.206L124.085 26.173H123.963L123.841 26.1853H123.731L123.609 26.1976L123.488 26.2099H123.378L123.256 26.2222H123.134L123.025 26.2344L122.915 26.2467H122.793L122.683 26.259L122.574 26.2713H122.464L122.355 26.2836L122.233 26.2958L122.123 26.3081L122.013 26.3204H121.92L121.81 26.3327L121.701 26.345L121.591 26.3572L121.481 26.3695L121.388 26.3818H121.278L121.185 26.3941L121.075 26.4064L120.982 26.4186L120.872 26.4309L120.779 26.4432L120.685 26.4555L120.576 26.4678L120.482 26.4801L120.389 26.4923L120.296 26.5046L120.202 26.5169L120.109 26.5292L120.015 26.5415L119.922 26.5701L119.829 26.5824L119.735 26.5947L119.654 26.6069L119.561 26.6192L119.467 26.6315L119.386 26.6602L119.293 26.6724L119.211 26.6847L119.118 26.697L119.037 26.7093L118.943 26.7379L118.862 26.7502L118.781 26.7625L118.7 26.7912L118.606 26.8034L118.525 26.8157L118.444 26.8444L118.363 26.8566L118.281 26.8689L118.2 26.8976L118.119 26.9099L118.05 26.9385L117.969 26.9508L117.887 26.9795L117.806 26.9917L117.656 27.0327L117.506 27.0736L117.355 27.1145L117.205 27.1677L117.071 27.2087L116.937 27.2496L116.787 27.2906L116.653 27.3438L116.531 27.3847L116.397 27.442L116.263 27.4829L116.141 27.5362L116.019 27.5935L115.898 27.6467L115.776 27.6876L115.666 27.7449L115.544 27.7981L115.435 27.8554L115.325 27.9087L115.215 27.966L115.106 28.0356L114.996 28.0929L114.903 28.1461L114.809 28.2034L114.7 28.273L114.606 28.3262L114.525 28.3958L114.431 28.4531L114.338 28.5227L114.257 28.5923L114.176 28.6496L114.094 28.7192L114.013 28.7888L113.932 28.8583L113.851 28.9279L113.782 28.9975L113.713 29.0671L113.631 29.1367L113.562 29.2063L113.51 29.2759L113.441 29.3577L113.372 29.4273L113.319 29.4969L113.25 29.5788L113.197 29.6484L113.144 29.7302L113.091 29.8121L113.039 29.8817L112.998 29.9636L112.945 30.0454L112.905 30.1273L112.864 30.1969L112.811 30.2788L112.771 30.3606L112.742 30.4425L112.701 30.5244L112.661 30.6226L112.632 30.7045L112.592 30.7864L112.563 30.8682L112.535 30.9665L112.507 31.0483L112.478 31.1302L112.45 31.2284L112.438 31.3267L112.409 31.4086L112.397 31.5068L112.368 31.5887L112.356 31.6869L112.344 31.7852L112.332 31.8834L112.32 31.9816L112.308 32.0799V32.1781L112.295 32.2764V32.3746L112.283 32.4729V33.0787L112.295 33.1769V33.2752L112.308 33.3734V33.4717L112.32 33.5699L112.332 33.6681L112.344 33.7664L112.356 33.8646L112.368 33.9465L112.397 34.0447L112.409 34.143L112.438 34.2248L112.45 34.3231L112.478 34.405L112.507 34.5032L112.535 34.5851L112.563 34.6833L112.592 34.7652L112.632 34.847L112.661 34.9289L112.701 35.0108L112.742 35.0927L112.771 35.1745L112.811 35.2564L112.864 35.3383L112.905 35.4201L112.945 35.502L112.998 35.5839L113.039 35.6657L113.091 35.7353L113.144 35.8172L113.197 35.8868L113.25 35.9687L113.319 36.0382L113.372 36.1201L113.441 36.1897L113.51 36.2593L113.562 36.3412L113.631 36.4107L113.713 36.4803L113.782 36.5499L113.851 36.6195L113.932 36.6891L114.013 36.7587L114.094 36.8283L114.176 36.8856L114.257 36.9552L114.338 37.0248L114.431 37.0821L114.525 37.1517L114.606 37.2049L114.7 37.2745L114.809 37.3318L114.903 37.4014L114.996 37.4587L115.106 37.516L115.215 37.5692L115.325 37.6265L115.435 37.6797L115.544 37.737L115.666 37.7902L115.776 37.8434L115.898 37.9008L116.019 37.954L116.141 38.0113L116.263 38.0522L116.397 38.1095L116.531 38.1505L116.653 38.2078L116.787 38.2487L116.937 38.3019L117.071 38.3428L117.205 38.3838L117.355 38.4247L117.506 38.482L117.656 38.523L117.806 38.5639L117.887 38.5762L117.969 38.6048L118.05 38.6171L118.119 38.6294L118.2 38.658L118.281 38.6703L118.363 38.699L118.444 38.7113L118.525 38.7235L118.606 38.7522L118.7 38.7645L118.781 38.7768L118.862 38.8054L118.943 38.8177L119.037 38.83L119.118 38.8586L119.211 38.8709L119.293 38.8832L119.386 38.8955L119.467 38.9077L119.561 38.9364L119.654 38.9487L119.735 38.961L119.829 38.9732L119.922 38.9855L120.015 38.9978L120.109 39.0101L120.202 39.0224L120.296 39.051L120.389 39.0633L120.482 39.0756L120.576 39.0879L120.685 39.1001L120.779 39.1124L120.872 39.1247L120.982 39.137H121.075L121.185 39.1493L121.278 39.1615L121.388 39.1738L121.481 39.1861L121.591 39.1984L121.701 39.2107L121.81 39.2229H121.92L122.013 39.2352L122.123 39.2475L122.233 39.2598L122.355 39.2721H122.464L122.574 39.2843L122.683 39.2966H122.793L122.915 39.3089L123.025 39.3212H123.134L123.256 39.3335L123.378 39.3457H123.488L123.609 39.358H123.731L123.841 39.3703H123.963L124.085 39.3826L124.206 39.3949H124.45L124.572 39.4071H124.694L124.816 39.4194H124.95L125.071 39.4317H125.327L125.449 39.444H125.705L125.839 39.4563H126.233L126.367 39.4685H126.907L127.041 39.4808H129.599L129.733 39.4685H130.274L130.408 39.4563H130.801L130.935 39.444H131.191L131.313 39.4317H131.569L131.703 39.4194H131.825L131.947 39.4071H132.069L132.19 39.3949H132.434L132.556 39.3826L132.678 39.3703H132.799L132.921 39.358H133.031L133.153 39.3457H133.275L133.384 39.3335L133.506 39.3212H133.616L133.725 39.3089L133.847 39.2966H133.957L134.067 39.2843L134.188 39.2721H134.298L134.408 39.2598L134.517 39.2475L134.627 39.2352L134.737 39.2229H134.83L134.94 39.2107L135.049 39.1984L135.159 39.1861L135.252 39.1738L135.362 39.1615L135.472 39.1493L135.565 39.137H135.658L135.768 39.1247L135.861 39.1124L135.971 39.1001L136.065 39.0879L136.158 39.0756L136.251 39.0633L136.345 39.051L136.438 39.0224L136.532 39.0101L136.625 38.9978L136.718 38.9855L136.812 38.9732L136.905 38.961L136.999 38.9487L137.08 38.9364L137.173 38.9077L137.254 38.8955L137.348 38.8832L137.441 38.8709L137.522 38.8586L137.604 38.83L137.697 38.8177L137.778 38.8054L137.86 38.7768L137.953 38.7645L138.034 38.7522L138.115 38.7235L138.197 38.7113L138.278 38.699L138.359 38.6703L138.44 38.658L138.521 38.6294L138.603 38.6171L138.672 38.6048L138.753 38.5762L138.834 38.5639L138.984 38.523L139.135 38.482L139.285 38.4247L139.435 38.3838L139.569 38.3428L139.719 38.3019L139.853 38.2487L139.987 38.2078L140.122 38.1505L140.243 38.1095L140.377 38.0522L140.499 38.0113L140.621 37.954L140.743 37.9008L140.865 37.8434L140.987 37.7902L141.096 37.737L141.206 37.6797L141.315 37.6265L141.425 37.5692L141.535 37.516L141.644 37.4587L141.738 37.4014L141.847 37.3318L141.941 37.2745L142.034 37.2049L142.128 37.1517L142.209 37.0821L142.302 37.0248L142.383 36.9552L142.465 36.8856L142.546 36.8283L142.627 36.7587L142.708 36.6891L142.79 36.6195L142.859 36.5499L142.94 36.4803L143.009 36.4107L143.078 36.3412L143.147 36.2593L143.2 36.1897L143.269 36.1201L143.338 36.0382L143.391 35.9687L143.443 35.8868L143.496 35.8172L143.549 35.7353L143.602 35.6657L143.642 35.5839L143.695 35.502L143.736 35.4201L143.789 35.3383L143.829 35.2564L143.87 35.1745L143.91 35.0927L143.939 35.0108L143.979 34.9289L144.02 34.847L144.049 34.7652L144.077 34.6833L144.105 34.5851L144.134 34.5032L144.162 34.405L144.191 34.3231L144.219 34.2248L144.231 34.143L144.26 34.0447L144.272 33.9465L144.284 33.8646L144.296 33.7664L144.308 33.6681L144.321 33.5699L144.333 33.4717L144.345 33.3734V33.2752L144.357 33.1769V32.3787L144.345 32.2805V32.1822L144.349 32.1781ZM136.255 32.7307V32.8413L136.243 32.8822V32.9641L136.231 32.9927L136.219 33.0337V33.0459L136.207 33.0582V33.0869L136.194 33.0991V33.1114L136.182 33.1237L136.17 33.1524V33.1646L136.158 33.1769L136.146 33.1892L136.134 33.2179L136.121 33.2301L136.109 33.2424L136.097 33.2547L136.085 33.267L136.073 33.2793L136.06 33.3079L136.032 33.3202L136.02 33.3325L136.008 33.3448L135.979 33.357L135.967 33.3693L135.939 33.3816L135.91 33.3939L135.898 33.4062L135.87 33.4348L135.841 33.4471L135.813 33.4594L135.784 33.4717L135.756 33.4839L135.727 33.4962L135.699 33.5085L135.671 33.5208L135.63 33.5331L135.602 33.5453L135.561 33.5576L135.533 33.5699L135.492 33.5822H135.451L135.411 33.5945L135.37 33.6067L135.33 33.619L135.289 33.6313L135.248 33.6436L135.208 33.6559L135.167 33.6681L135.114 33.6804H135.074L135.021 33.6927L134.968 33.705L134.915 33.7173L134.862 33.7295H134.81L134.757 33.7418L134.704 33.7541L134.651 33.7664H134.582L134.529 33.7787L134.46 33.7909L134.391 33.8032H134.322L134.253 33.8155L134.184 33.8278H134.115L134.046 33.8401L133.965 33.8523H133.896L133.815 33.8646H133.746L133.664 33.8769L133.583 33.8892H133.49L133.409 33.9015H133.327L133.234 33.9137H133.153L133.059 33.926H132.966L132.873 33.9383H132.779L132.686 33.9506H132.483L132.373 33.9629H132.263L132.154 33.9751H131.939L131.829 33.9874H131.597L131.476 33.9997H131.232L131.11 34.012H130.582L130.448 34.0243H129.746L129.664 34.0365H127L126.919 34.0243H126.217L126.083 34.012H125.567L125.433 33.9997H125.189L125.079 33.9874H124.836L124.726 33.9751H124.511L124.401 33.9629H124.292L124.182 33.9506H123.979L123.886 33.9383H123.792L123.699 33.926H123.605L123.512 33.9137H123.431L123.337 33.9015H123.256L123.175 33.8892H123.094L123.012 33.8769L122.931 33.8646H122.85L122.769 33.8523H122.7L122.619 33.8401L122.549 33.8278H122.48L122.411 33.8155L122.342 33.8032H122.273L122.204 33.7909L122.135 33.7787L122.082 33.7664H122.013L121.961 33.7541L121.908 33.7418L121.855 33.7295H121.802L121.749 33.7173L121.697 33.705L121.644 33.6927L121.603 33.6804H121.55L121.51 33.6681L121.457 33.6559L121.416 33.6436L121.376 33.6313L121.335 33.619L121.295 33.6067L121.254 33.5945L121.213 33.5822H121.173L121.132 33.5699L121.104 33.5576L121.063 33.5453L121.035 33.5331L121.006 33.5208L120.966 33.5085L120.937 33.4962L120.909 33.4839L120.88 33.4717L120.852 33.4594L120.824 33.4471L120.795 33.4348L120.767 33.4062L120.755 33.3939L120.726 33.3816L120.698 33.3693L120.685 33.357L120.657 33.3448L120.645 33.3325L120.633 33.3202L120.604 33.3079L120.592 33.2793L120.58 33.267L120.568 33.2547L120.556 33.2424L120.543 33.2301L120.531 33.2179L120.519 33.1892L120.507 33.1769V33.1646L120.495 33.1524L120.482 33.1237L120.47 33.1114V33.0991L120.458 33.0869V33.0582L120.446 33.0459V33.0337L120.434 32.9927L120.421 32.9641V32.8822L120.409 32.8413V32.6898L120.421 32.6611V32.5793L120.434 32.5506L120.446 32.5097V32.4974L120.458 32.4688V32.4565L120.47 32.4442V32.4319L120.482 32.4033L120.495 32.391L120.507 32.3787V32.3664L120.519 32.3541L120.531 32.3255L120.543 32.3132L120.556 32.3009L120.568 32.2886L120.58 32.2764L120.592 32.2477L120.604 32.2354L120.633 32.2231L120.645 32.2109L120.657 32.1986L120.685 32.1863L120.698 32.174L120.726 32.1617L120.755 32.1495L120.767 32.1208L120.795 32.1085L120.824 32.0963L120.852 32.084L120.88 32.0717L120.909 32.0594L120.937 32.0471L120.966 32.0349L121.006 32.0226L121.035 32.0103L121.063 31.998L121.104 31.9857L121.132 31.9734L121.173 31.9612L121.213 31.9489H121.254L121.295 31.9366L121.335 31.9243L121.376 31.912L121.416 31.8998L121.457 31.8875L121.51 31.8752L121.55 31.8629H121.603L121.644 31.8506L121.697 31.8384L121.749 31.8261L121.802 31.8138H121.855L121.908 31.8015L121.961 31.7892L122.013 31.777H122.082L122.135 31.7647L122.204 31.7524L122.273 31.7401H122.342L122.411 31.7278L122.48 31.7156H122.549L122.619 31.7033L122.7 31.691H122.769L122.85 31.6787H122.931L123.012 31.6664L123.094 31.6542H123.175L123.256 31.6419H123.337L123.431 31.6296H123.512L123.605 31.6173H123.699L123.792 31.605H123.886L123.979 31.5928H124.182L124.292 31.5805H124.401L124.511 31.5682H124.726L124.836 31.5559H125.079L125.189 31.5436H125.433L125.567 31.5314H125.944L126.078 31.5191H126.85L126.919 31.5068H129.75L129.819 31.5191H130.59L130.724 31.5314H131.118L131.24 31.5436H131.484L131.606 31.5559H131.837L131.947 31.5682H132.162L132.272 31.5805H132.381L132.491 31.5928H132.694L132.787 31.605H132.881L132.974 31.6173H133.068L133.161 31.6296H133.242L133.336 31.6419H133.417L133.498 31.6542H133.591L133.673 31.6664L133.754 31.6787H133.823L133.904 31.691H133.973L134.054 31.7033L134.123 31.7156H134.192L134.261 31.7278L134.33 31.7401H134.4L134.469 31.7524L134.538 31.7647L134.59 31.777H134.659L134.712 31.7892L134.765 31.8015L134.818 31.8138H134.871L134.923 31.8261L134.976 31.8384L135.029 31.8506L135.082 31.8629H135.122L135.175 31.8752L135.216 31.8875L135.256 31.8998L135.297 31.912L135.338 31.9243L135.378 31.9366L135.419 31.9489H135.459L135.5 31.9612L135.541 31.9734L135.569 31.9857L135.61 31.998L135.638 32.0103L135.679 32.0226L135.707 32.0349L135.736 32.0471L135.764 32.0594L135.792 32.0717L135.821 32.084L135.849 32.0963L135.878 32.1085L135.906 32.1208L135.918 32.1495L135.947 32.1617L135.975 32.174L135.987 32.1863L136.016 32.1986L136.028 32.2109L136.04 32.2231L136.069 32.2354L136.081 32.2477L136.093 32.2764L136.105 32.2886L136.117 32.3009L136.13 32.3132L136.142 32.3255L136.154 32.3541L136.166 32.3664L136.178 32.3787V32.391L136.19 32.4033L136.203 32.4319V32.4442L136.215 32.4565V32.4688L136.227 32.4974V32.5097L136.239 32.5506L136.251 32.5793V32.6611L136.264 32.6898V32.7307H136.255Z" fill="white"/>
<path d="M68.5459 25.1497H105.562L109.323 19.4066H72.3105L68.5459 25.1497Z" fill="white"/>
<path d="M94.7189 17.9739H102.488V5.93506H97.1433H76.3833L72.2695 12.2185H94.7189V17.9739Z" fill="white"/>
<path d="M135.24 20.3849V25.3298H143.346V5.20642H135.24V13.1968H132.41L127.703 20.3849H135.24Z" fill="white"/>
<path d="M113.976 25.3298H122.586L130.558 13.1559H122.533L126.972 5.96371H118.334L110.854 17.3967H118.878L113.976 25.3298Z" fill="white"/>
<path d="M219.335 5.20642H211.229V38.6212H219.335V25.731H221.435L224.412 17.4786H219.335V5.20642Z" fill="white"/>
<path d="M254.467 16.8891V5.21869H246.361V38.6212H254.467V24.7935H257.281V16.8891H254.467Z" fill="white"/>
<path d="M157.811 26.5824H149.693V38.6212H182.498V32.1618H157.811V26.5824Z" fill="white"/>
<path d="M72.9844 38.6212H103.312V26.5824H72.9844V38.6212ZM80.7409 31.8015H95.5596V33.4839H80.7409V31.8015Z" fill="white"/>
<path d="M241.83 5.96371H233.22L226.077 25.731H234.682L230.029 38.6212H238.634L245.781 18.8417H237.172L241.83 5.96371Z" fill="white"/>
<path d="M157.99 25.3298L160.995 18.0721L163.631 25.3298H171.915L168.289 15.2763H162.144L162.928 13.4711H171.213V6.29529H150.412V13.4711H154.632L149.693 25.3298H157.99Z" fill="white"/>
<path d="M174.392 15.2763H170.047L172.333 21.613H174.392V29.2022H182.498V5.20642H174.392V15.2763Z" fill="white"/>
<path d="M13.877 16.6885L24.1189 38.4575H36.5293L47.4576 15.9967L30.4216 32.0676L13.877 16.6885Z" fill="white"/>
<path d="M58.3082 29.6279C56.7 29.6525 55.3964 30.9624 55.3761 32.5834V32.6489H40.1148L48.846 14.4781C50.0399 15.616 51.9283 15.5628 53.0573 14.3594C54.1862 13.1559 54.1334 11.2524 52.9395 10.1145C52.3912 9.5905 51.6643 9.29577 50.909 9.29168C49.248 9.30396 47.916 10.6712 47.9282 12.3413C47.9322 13.1231 48.2409 13.8763 48.7851 14.4371L34.6162 27.7449L30.6079 6.54498L30.5429 6.5327L26.3154 27.6426L12.6298 14.5845C13.7912 13.4097 13.7831 11.5062 12.6176 10.3396C11.4521 9.16888 9.56371 9.17706 8.40632 10.3519C7.24486 11.5267 7.25299 13.4301 8.4185 14.5968C9.57995 15.7593 11.4561 15.7593 12.6176 14.5968L21.2473 32.6898H5.9697C5.83975 31.0279 4.39403 29.7916 2.74931 29.9267C1.24673 30.0495 0.0690374 31.2776 0 32.7921C0 34.45 1.33608 35.7926 2.98079 35.7926C4.6255 35.7926 5.95752 34.45 5.95752 32.7921V32.7266L24.1225 38.9241H36.9918L55.372 32.6734C55.3964 34.3313 56.7487 35.6575 58.3934 35.6289C60.0381 35.6043 61.3539 34.2412 61.3255 32.5834C61.3011 30.9255 59.9488 29.5993 58.3041 29.6279M30.5633 11.453L33.7836 28.5841L30.5633 31.6132L27.0383 28.3794L30.5633 11.453V11.453ZM10.9729 33.4962H21.7549L23.8301 37.8844L10.9729 33.4962ZM36.533 37.8844H24.6098L14.9649 17.7283L30.4089 32.6939L46.6124 17.7283L36.533 37.8844V37.8844ZM37.5279 37.8844L39.5909 33.4962H50.3851L37.5279 37.8844ZM30.6648 0.498962C29.0404 0.498962 27.7246 1.82524 27.7246 3.46262C27.7246 5.09999 29.0404 6.42627 30.6648 6.42627C32.2892 6.42627 33.605 5.09999 33.605 3.46262C33.605 1.82524 32.2892 0.498962 30.6648 0.498962Z" fill="white"/>
<path d="M30.6811 5.57074C29.544 5.57074 28.6181 4.63744 28.6181 3.49127C28.6181 2.34511 29.544 1.4118 30.6811 1.4118C31.8182 1.4118 32.7441 2.34511 32.7441 3.49127C32.7441 4.63744 31.8182 5.57074 30.6811 5.57074ZM10.4938 14.6336C9.33637 14.6336 8.39827 13.6839 8.39827 12.5173C8.39827 11.3507 9.34043 10.401 10.4938 10.401C11.6471 10.401 12.5933 11.3507 12.5933 12.5173C12.5933 13.6839 11.6512 14.6336 10.4938 14.6336M2.96463 34.9617C1.80724 34.9617 0.869141 34.012 0.869141 32.8494C0.869141 31.6869 1.8113 30.7372 2.96463 30.7372C4.11796 30.7372 5.06011 31.6869 5.06011 32.8494C5.06011 34.012 4.11796 34.9617 2.96463 34.9617M58.3691 34.7979C57.2117 34.7979 56.2736 33.8482 56.2736 32.6816C56.2736 31.515 57.2158 30.5694 58.3691 30.5694C59.5225 30.5694 60.4646 31.5191 60.4646 32.6816C60.4646 33.8442 59.5225 34.7979 58.3691 34.7979ZM50.9131 14.4453C49.7557 14.4453 48.8176 13.4956 48.8176 12.329C48.8176 11.1624 49.7598 10.2168 50.9131 10.2168C52.0664 10.2168 53.0086 11.1665 53.0086 12.329C53.0086 13.4916 52.0664 14.4453 50.9131 14.4453" fill="white"/>
</g>
<defs>
<clipPath id="clip0_2334_11985">
<rect width="257.282" height="58" fill="white" transform="translate(0 0.498962)"/>
</clipPath>
</defs>
</svg>
