<svg width="124" height="84" viewBox="0 0 124 84" fill="none" xmlns="http://www.w3.org/2000/svg">
<g clip-path="url(#clip0_1558_13783)">
<path d="M46.1064 16.8591L56.8638 39.5167L69.8855 39.5137L81.3461 16.1286L63.4747 32.8664L46.1064 16.8591Z" fill="white"/>
<path d="M92.7401 30.3173C91.0487 30.3445 89.6878 31.7085 89.6635 33.3969V33.4636L73.6471 33.4696L82.8041 14.5494C84.059 15.7345 86.0383 15.68 87.2235 14.4251C88.4086 13.1702 88.3541 11.1909 87.0992 10.0057C86.5233 9.46012 85.7594 9.15398 84.9683 9.15095C83.2285 9.16611 81.8281 10.5877 81.8402 12.3276C81.8463 13.1429 82.1676 13.925 82.7404 14.5069L67.8758 28.3652L63.6626 6.29867L63.5959 6.28654L59.1674 28.2622L44.803 14.6676C46.0184 13.443 46.0124 11.4637 44.7878 10.2482C43.5632 9.03274 41.5839 9.0388 40.3684 10.2634C39.153 11.4879 39.159 13.4673 40.3836 14.6858C41.6021 15.8982 43.5723 15.8952 44.7908 14.6858L53.8539 33.5181L37.8223 33.5242C37.6829 31.7964 36.1703 30.5082 34.4426 30.6477C32.8664 30.775 31.6297 32.0541 31.557 33.6333C31.557 35.361 32.9574 36.7584 34.6851 36.7584C36.4098 36.7584 37.8102 35.358 37.8102 33.6333V33.5666L56.8759 40.0138H70.3826L89.6696 33.4999C89.6969 35.2246 91.1154 36.6038 92.8432 36.5765C94.5709 36.5492 95.947 35.1307 95.9198 33.4029C95.8925 31.6782 94.4739 30.2991 92.7462 30.3264M63.6262 11.4122L67.012 29.2442L63.6323 32.3966L59.9313 29.0321L63.6262 11.4122ZM43.0752 34.3699H54.3904L56.5698 38.9347L43.0752 34.3699ZM69.9006 38.9317H57.3882L47.2612 17.9564L63.4747 33.5333L80.4732 17.9473L69.9037 38.9317H69.9006ZM70.9433 38.9317L73.1045 34.3638H84.4318L70.9403 38.9317H70.9433ZM63.7232 0C62.0197 0 60.6406 1.38219 60.6406 3.08568C60.6406 4.78917 62.0228 6.16833 63.7262 6.16833C65.4297 6.16833 66.8089 4.78614 66.8089 3.08265C66.8059 1.37916 65.4237 0 63.7232 0Z" fill="white"/>
<path d="M63.7384 5.27717C62.5441 5.27717 61.5711 4.30721 61.5711 3.10992C61.5711 1.91566 62.5411 0.942673 63.7353 0.942673C64.9296 0.942673 65.9026 1.91263 65.9026 3.10992C65.9026 4.30418 64.9326 5.27717 63.7353 5.27717M42.5539 14.7191C41.3414 14.7191 40.3533 13.734 40.3533 12.5185C40.3533 11.303 41.3414 10.3179 42.5539 10.3179C43.7663 10.3179 44.7545 11.303 44.7545 12.5185C44.7545 13.731 43.7663 14.7191 42.5539 14.7191ZM34.6608 35.8854C33.4484 35.8854 32.4602 34.9003 32.4602 33.6848C32.4602 32.4723 33.4453 31.4842 34.6608 31.4842C35.8763 31.4842 36.8614 32.4723 36.8614 33.6848C36.8614 34.8972 35.8763 35.8854 34.6608 35.8854ZM92.8007 35.7005C91.5852 35.7005 90.6001 34.7154 90.6001 33.4999C90.6001 32.2844 91.5883 31.2993 92.8007 31.2993C94.0132 31.2993 95.0013 32.2874 95.0013 33.4999C95.0013 34.7123 94.0162 35.7005 92.8007 35.7005ZM84.9713 14.513C83.7589 14.513 82.7707 13.5248 82.7707 12.3124C82.7707 11.0999 83.7559 10.1118 84.9713 10.1118C86.1838 10.1118 87.1719 11.0999 87.1719 12.3124C87.1719 13.5248 86.1838 14.513 84.9713 14.513Z" fill="white"/>
<path d="M38.8438 80.843H36.3431V81.8221H32.5875V83.9984H42.5963V81.8221H38.8438V80.843Z" fill="white"/>
<path d="M42.272 78.612H35.4156V78.1786H42.272V74.3139H32.9149V76.1113H39.7682V76.5448H32.9149V80.4095H42.272V78.612Z" fill="white"/>
<path d="M49.9983 78.6122H47.4946V81.8221H44.4453V83.9984H54.454V81.8221H49.9983V78.6122Z" fill="white"/>
<path d="M51.626 80.5822H54.1267V74.3169H51.626H44.7696V76.4902H51.626V80.5822Z" fill="white"/>
<path d="M56.3758 83.9984H66.2754V80.5157H56.3758V83.9984ZM58.7703 82.0949H63.8838V82.7466H58.7703V82.0949Z" fill="white"/>
<path d="M66.2784 74.0988H63.7747V80.0822H66.2784V74.0988Z" fill="white"/>
<path d="M58.9947 80.0821L59.9616 77.8512L60.8133 80.0821H63.4868L62.3168 77.0086H60.3253L60.5648 76.4417H63.2595V74.2806H61.2135V73.4834H58.5976V74.2806H56.5486V76.4417H57.8914L56.3212 80.0821H58.9947Z" fill="white"/>
<path d="M88.7844 74.0441V77.9058H87.7902V80.0821H88.7844V83.9438H91.0547V74.0441H88.7844Z" fill="white"/>
<path d="M81.1217 74.6625V76.8389V77.9058V80.0822V81.1491V83.3255H87.7417V81.1491H83.2981V80.0822H86.8172V77.9058H83.2981V76.8389H87.7417V74.6625H83.2981H81.1217Z" fill="white"/>
<path d="M28.5471 77.6906H28.0015V74.0472L25.9888 74.0441V83.9468H28.0015V79.8669H28.5471V83.9468H30.5597V74.0472H28.5471V77.6906Z" fill="white"/>
<path d="M24.5248 74.4018H22.2757L20.2509 79.9063H22.8273L21.433 83.6952H23.6821L25.7069 78.1907H23.1304L24.5248 74.4018Z" fill="white"/>
<path d="M78.8182 74.0988H77.0146V81.4462H78.8182V74.0988Z" fill="white"/>
<path d="M71.0797 80.8793H68.5791V83.9438H78.8182V81.8765H71.0797V80.8793Z" fill="white"/>
<path d="M69.4914 80.4913H71.8041L73.6349 76.5206H70.9827L71.9163 74.4048H69.6005L67.7758 78.3817H70.425L69.4914 80.4913Z" fill="white"/>
<path d="M74.7747 78.3787V81.4462H76.5782V74.0988H74.7747V76.5176H74.0472L73.1894 78.3787H74.7747Z" fill="white"/>
<path d="M101.554 80.5732L101.436 80.5338L101.376 80.6429C100.73 81.7826 99.5176 82.4889 98.2112 82.4889C96.2076 82.4889 94.5768 80.8581 94.5768 78.8545C94.5768 76.851 96.2076 75.2202 98.2112 75.2202C99.36 75.2202 100.424 75.7537 101.112 76.6661H100.321L102.067 79.3517L103.749 76.6661H102.782C101.942 74.9141 100.157 73.7896 98.2112 73.7896C95.4165 73.7896 93.1431 76.0629 93.1431 78.8576C93.1431 81.6523 95.4165 83.9256 98.2112 83.9256C100.127 83.9256 101.858 82.8647 102.731 81.1552L102.809 81.0006L102.646 80.946C101.994 80.7247 101.554 80.5793 101.554 80.5793" fill="white"/>
<path d="M110.539 55.6604L113.655 47.1915H107.893L103.112 60.1859H108.872L105.756 68.6518H111.518L116.298 55.6604H110.539Z" fill="white"/>
<path d="M122.112 54.3722V46.7005H116.683V68.6518H122.112V59.5645H124V54.3722H122.112Z" fill="white"/>
<path d="M99.1781 54.7572V46.7005H93.7494V68.6518H99.1781V60.1859H100.578L102.576 54.7572H99.1781Z" fill="white"/>
<path d="M78.6424 51.7746H80.1277V64.4022H78.6424V68.6519H92.5674V64.4022H91.0821V51.7746H92.5674V47.0551H78.6424V51.7746ZM84.7077 51.7746H86.5021V64.4022H84.7077V51.7746Z" fill="white"/>
<path d="M58.5824 60.7466H53.1537V68.6518H75.105V64.4021H58.5824V60.7466Z" fill="white"/>
<path d="M58.7006 59.9191L60.7072 55.1512L62.4774 59.9191H68.0243L65.5934 53.3083H61.4862L62.0045 52.1291H67.5545L67.5515 47.4097H53.6265V52.1291H56.4576L53.1537 59.9191H58.7006Z" fill="white"/>
<path d="M69.6763 46.7005V53.3083H66.7694L68.3032 57.47H69.6763V62.4653H75.105V46.7005H69.6763Z" fill="white"/>
<path d="M2.96747 68.6518H23.2699V60.7436H2.96747V68.6518ZM8.15977 64.1688H18.0745V65.2782H8.1628V64.1688H8.15977Z" fill="white"/>
<path d="M2.51886 56.0242L0 59.801H24.7673L27.2861 56.0242H2.51886Z" fill="white"/>
<path d="M17.5168 55.0814H22.7122V47.1732H19.1385H5.24686L2.49158 51.3016H17.5168V55.0814Z" fill="white"/>
<path d="M39.4227 60.3677C31.1356 60.3677 28.6834 61.9712 28.6834 64.8053C28.6834 67.6394 31.1386 69.2428 39.4227 69.2428C47.7068 69.2428 50.165 67.6363 50.165 64.8053C50.165 61.9742 47.7098 60.3677 39.4227 60.3677ZM39.4227 65.7025C34.6547 65.7025 34.1122 65.3478 34.1122 64.8053C34.1122 64.2627 34.6547 63.9081 39.4227 63.9081C44.1907 63.9081 44.7332 64.2627 44.7332 64.8053C44.7332 65.3478 44.1907 65.7025 39.4227 65.7025Z" fill="white"/>
<path d="M44.0513 56.6638V59.9192H49.48V46.7005H44.0513V51.9443H42.1598L39.0105 56.6638H44.0513Z" fill="white"/>
<path d="M38.5225 47.1915H32.7452L27.7347 54.7026H33.1059L29.8232 59.9191H35.5823L40.9201 51.914H35.549L38.5225 47.1915Z" fill="white"/>
</g>
<defs>
<clipPath id="clip0_1558_13783">
<rect width="124" height="83.9984" fill="white"/>
</clipPath>
</defs>
</svg>
