<svg width="20" height="20" viewBox="0 0 20 20" fill="none" xmlns="http://www.w3.org/2000/svg">
<path fill-rule="evenodd" clip-rule="evenodd" d="M9.99935 2.49994C12.1502 2.49994 14.0452 3.88411 14.7285 5.87077C16.761 6.14661 18.3327 7.89327 18.3327 9.99994C18.3327 11.0174 17.9627 11.9966 17.291 12.7574C17.126 12.9433 16.8968 13.0391 16.666 13.0391C16.4702 13.0391 16.2735 12.9708 16.1143 12.8308C15.7702 12.5249 15.7368 11.9991 16.0418 11.6533C16.4443 11.1983 16.666 10.6099 16.666 9.99994C16.666 8.6216 15.5443 7.49994 14.166 7.49994H14.0827C13.686 7.49994 13.3443 7.21994 13.266 6.83077C12.9543 5.28744 11.581 4.16661 9.99935 4.16661C8.41852 4.16661 7.04435 5.28744 6.73352 6.83077C6.65518 7.21994 6.31268 7.49994 5.91602 7.49994H5.83268C4.45435 7.49994 3.33268 8.6216 3.33268 9.99994C3.33268 10.6099 3.55435 11.1983 3.95768 11.6533C4.26185 11.9991 4.22935 12.5249 3.88435 12.8308C3.53935 13.1358 3.01268 13.1016 2.70852 12.7574C2.03602 11.9966 1.66602 11.0174 1.66602 9.99994C1.66602 7.89327 3.23768 6.14661 5.27018 5.87077C5.95435 3.88411 7.84935 2.49994 9.99935 2.49994ZM9.42035 9.40002C9.74868 9.08669 10.2678 9.08919 10.5887 9.41085L13.0887 11.9109C13.4145 12.2367 13.4145 12.7634 13.0887 13.0892C12.9262 13.2517 12.7128 13.3334 12.4995 13.3334C12.2862 13.3334 12.0729 13.2517 11.9103 13.0892L10.8328 12.0117V16.6667C10.8328 17.1275 10.4595 17.5 9.99952 17.5C9.53952 17.5 9.16618 17.1275 9.16618 16.6667L9.16618 11.9634L8.07868 13.0134C7.74785 13.3342 7.22035 13.3234 6.90035 12.9925C6.58035 12.6609 6.58952 12.1342 6.92035 11.8142L9.42035 9.40002Z" fill="#AAAAAA"/>
</svg>
