<svg width="20" height="20" viewBox="0 0 20 20" fill="none" xmlns="http://www.w3.org/2000/svg">
<path fill-rule="evenodd" clip-rule="evenodd" d="M10.0001 18.8334C11.4372 18.8334 12.8226 18.4683 14.0497 17.7848L17.579 18.0789L17.2849 14.5496C17.9684 13.3225 18.3334 11.9372 18.3334 10.5C18.3334 5.89765 14.6025 2.16669 10.0001 2.16669C5.39771 2.16669 1.66675 5.89765 1.66675 10.5C1.66675 15.1024 5.39771 18.8334 10.0001 18.8334ZM13.4292 16.2184L13.6597 16.0799L15.7545 16.2544L15.5799 14.1597L15.7185 13.9292C16.3359 12.902 16.6667 11.7263 16.6667 10.5C16.6667 6.81812 13.682 3.83335 10.0001 3.83335C6.31818 3.83335 3.33341 6.81812 3.33341 10.5C3.33341 14.1819 6.31818 17.1667 10.0001 17.1667C11.2264 17.1667 12.4021 16.8359 13.4292 16.2184ZM10.0004 14.6653C10.4607 14.6653 10.834 14.2922 10.834 13.832C10.834 13.3717 10.4607 12.9986 10.0004 12.9986C9.53997 12.9986 9.16675 13.3717 9.16675 13.832C9.16675 14.2922 9.53997 14.6653 10.0004 14.6653ZM9.16675 12.1667H10.8334V11.3334C10.8334 11.3354 10.8374 11.3311 10.8463 11.3212C10.8681 11.2971 10.92 11.24 11.0172 11.1629C11.1006 11.0967 11.1265 11.0795 11.3374 10.9458C12.0551 10.4908 12.5001 9.69966 12.5001 8.83335C12.5001 7.45264 11.3808 6.33335 10.0001 6.33335C8.61937 6.33335 7.50008 7.45264 7.50008 8.83335H9.16675C9.16675 8.37312 9.53984 8.00002 10.0001 8.00002C10.4603 8.00002 10.8334 8.37312 10.8334 8.83335C10.8334 9.12278 10.6855 9.38575 10.4451 9.5382C10.1752 9.70926 10.1304 9.73894 9.98132 9.85723C9.4857 10.2504 9.16675 10.7189 9.16675 11.3334V12.1667Z" fill="black"/>
</svg>
