<svg width="20" height="12" viewBox="0 0 20 12" fill="none" xmlns="http://www.w3.org/2000/svg">
<path d="M19.2688 4.24563L16.0434 0.986943C15.966 0.908828 15.8738 0.846825 15.7722 0.804513C15.6707 0.762202 15.5617 0.740417 15.4517 0.740417C15.3417 0.740417 15.2327 0.762202 15.1312 0.804513C15.0296 0.846825 14.9374 0.908828 14.86 0.986943C14.7047 1.1431 14.6176 1.35433 14.6176 1.57451C14.6176 1.79469 14.7047 2.00592 14.86 2.16207L17.827 5.15407H0.833425C0.612387 5.15407 0.400402 5.24188 0.244105 5.39817C0.087807 5.55447 0 5.76646 0 5.98749H0C0 6.20853 0.087807 6.42052 0.244105 6.57681C0.400402 6.73311 0.612387 6.82092 0.833425 6.82092H17.877L14.86 9.82958C14.7819 9.90706 14.7198 9.99924 14.6775 10.1008C14.6352 10.2024 14.6134 10.3113 14.6134 10.4213C14.6134 10.5313 14.6352 10.6403 14.6775 10.7418C14.7198 10.8434 14.7819 10.9356 14.86 11.013C14.9374 11.0912 15.0296 11.1532 15.1312 11.1955C15.2327 11.2378 15.3417 11.2596 15.4517 11.2596C15.5617 11.2596 15.6707 11.2378 15.7722 11.1955C15.8738 11.1532 15.966 11.0912 16.0434 11.013L19.2688 7.77936C19.737 7.31055 20 6.67507 20 6.0125C20 5.34992 19.737 4.71444 19.2688 4.24563Z" fill="white"/>
</svg>
