<svg width="20" height="20" viewBox="0 0 20 20" fill="none" xmlns="http://www.w3.org/2000/svg">
<g clip-path="url(#clip0_280_1013)">
<path fill-rule="evenodd" clip-rule="evenodd" d="M15.8334 8.33331C15.8334 4.95067 13.9681 2.6029 11.5546 1.89807C11.4672 1.67195 11.3291 1.46173 11.1413 1.28534C10.4999 0.682638 9.50031 0.682638 8.85884 1.28534C8.67152 1.46134 8.53359 1.67102 8.44617 1.89658C6.02954 2.59834 4.16675 4.94097 4.16675 8.33331C4.16675 10.5282 3.72423 11.7581 2.90505 12.6494C2.76808 12.7984 2.39701 13.1398 2.14564 13.371L2.14562 13.3711L2.14551 13.3712L2.14543 13.3712C2.0266 13.4805 1.93456 13.5652 1.90672 13.5933L1.66675 13.8366V16.6784H6.74006C6.91161 17.5634 7.39183 18.1555 8.26025 18.6855C9.32854 19.3374 10.6716 19.3374 11.7399 18.6855C12.5063 18.2178 13.0202 17.499 13.2287 16.6784H18.3334V13.8366L18.0934 13.5933C18.0682 13.5676 17.9798 13.4861 17.8643 13.3795L17.8643 13.3795C17.6136 13.1484 17.2353 12.7993 17.0962 12.6474C16.2765 11.752 15.8334 10.5205 15.8334 8.33331ZM11.4473 16.6784H8.48226C8.6 16.8974 8.80067 17.0628 9.12843 17.2628C9.66364 17.5894 10.3365 17.5894 10.8717 17.2628C11.1196 17.1115 11.3132 16.9114 11.4473 16.6784ZM15.8669 13.7728C16.0423 13.9644 16.4181 14.3145 16.6667 14.5433V15.0117H3.33341V14.5436C3.58014 14.3176 3.95711 13.9677 4.13215 13.7772C5.24527 12.5661 5.83341 10.9315 5.83341 8.33331C5.83341 5.18323 7.77739 3.34363 10.0001 3.34363C12.2165 3.34363 14.1667 5.19272 14.1667 8.33331C14.1667 10.9231 14.7551 12.5583 15.8669 13.7728Z" fill="black"/>
</g>
<defs>
<clipPath id="clip0_280_1013">
<rect width="20" height="20" fill="white"/>
</clipPath>
</defs>
</svg>
