<svg width="80" height="80" viewBox="0 0 80 80" fill="none" xmlns="http://www.w3.org/2000/svg">
<circle cx="40" cy="40" r="40" fill="#F4F4F4"/>
<path d="M40 18C27.8371 18 18 27.8371 18 40C18 52.1629 27.8371 62 40 62C52.1629 62 62 52.1629 62 40C62 27.8371 52.1629 18 40 18ZM30.5714 30.6971C32.3 30.6971 33.7143 32.1114 33.7143 33.84C33.7143 35.5686 32.3 36.9829 30.5714 36.9829C28.8429 36.9829 27.4286 35.5686 27.4286 33.84C27.4286 32.1114 28.8429 30.6971 30.5714 30.6971ZM49.4286 30.6971C51.1571 30.6971 52.5714 32.1114 52.5714 33.84C52.5714 35.5686 51.1571 36.9829 49.4286 36.9829C47.7 36.9829 46.2857 35.5686 46.2857 33.84C46.2857 32.1114 47.7 30.6971 49.4286 30.6971ZM25.6057 46.4114H54.3943C51.9114 52.1314 46.2543 55.84 40 55.84C33.7457 55.84 28.12 52.1314 25.6057 46.4114Z" fill="#666666"/>
</svg>
