<svg width="241" height="64" viewBox="0 0 241 64" fill="none" xmlns="http://www.w3.org/2000/svg">
<path d="M33.84 43.832H14.16V47.768H33.84V43.832ZM44.4 36.632V54.968H8.784C8.08 54.968 7.488 54.712 7.008 54.2L4.32 51.368C3.84 50.856 3.6 50.264 3.6 49.592V36.632H44.4ZM46.08 33.752H1.92V26.552H46.08V33.752ZM43.584 14.888C44 15.464 44.192 16.072 44.16 16.712L43.68 24.44L33.312 25.112L33.744 17.576H5.088L3.84 10.376H39.024C39.76 10.376 40.352 10.664 40.8 11.24L43.584 14.888ZM61.824 54.968C60.384 54.968 59.072 54.728 57.888 54.248C56.736 53.768 55.744 53.096 54.912 52.232C54.112 51.368 53.488 50.344 53.04 49.16C52.624 47.976 52.416 46.68 52.416 45.272C52.416 43.864 52.624 42.568 53.04 41.384C53.488 40.2 54.112 39.176 54.912 38.312C55.744 37.448 56.736 36.776 57.888 36.296C59.072 35.816 60.384 35.576 61.824 35.576H85.152C86.656 35.576 87.984 35.816 89.136 36.296C90.32 36.776 91.312 37.448 92.112 38.312C92.912 39.176 93.52 40.2 93.936 41.384C94.352 42.568 94.56 43.864 94.56 45.272C94.56 46.68 94.352 47.976 93.936 49.16C93.52 50.344 92.912 51.368 92.112 52.232C91.312 53.096 90.32 53.768 89.136 54.248C87.984 54.728 86.656 54.968 85.152 54.968H61.824ZM49.488 32.84L60.432 11.096H71.184L67.152 19.112L72.528 19.736L79.152 32.84H67.92L64.08 25.208L60.24 32.84H49.488ZM82.8 17.96V15.608L80.352 10.376H93.36V34.136H82.8V26.36H77.472L73.248 17.96H82.8ZM82.032 46.808C82.64 46.808 83.12 46.68 83.472 46.424C83.824 46.136 84 45.752 84 45.272C84 44.792 83.824 44.424 83.472 44.168C83.12 43.88 82.64 43.736 82.032 43.736H64.944C64.336 43.736 63.856 43.88 63.504 44.168C63.152 44.424 62.976 44.792 62.976 45.272C62.976 45.752 63.152 46.136 63.504 46.424C63.856 46.68 64.336 46.808 64.944 46.808H82.032ZM125.952 19.496H116.304L114.672 22.904L120.528 23.576L126.672 36.248H115.44L111.84 28.76L108.24 36.248H97.488L105.552 19.496H98.688V11.096H125.952V19.496ZM141.84 46.568V54.968H106.32C105.616 54.968 105.024 54.712 104.544 54.2L101.856 51.368C101.376 50.856 101.136 50.264 101.136 49.592V38.264H111.84V46.568H141.84ZM130.8 21.896V15.608L128.352 10.376H141.36V42.296H130.8V30.296H125.424L121.344 21.896H130.8ZM187.008 27.176H192.48V36.056H187.008V54.968H176.448V15.608L174 10.376H187.008V27.176ZM149.184 43.688V19.496H145.44L144 11.096H173.328L175.248 19.496H159.024V43.688H149.184ZM175.008 53.528H145.44V45.128H161.328L162.48 20.936H172.416L171.072 45.128H175.008V53.528ZM192.528 53.528L203.472 11.096H214.08L209.664 28.184L217.344 29.192L222.96 53.528H212.352L207.936 34.904L203.136 53.528H192.528ZM234.528 27.176H240.48V36.056H234.528V54.968H223.968V15.608L221.52 10.376H234.528V27.176Z" fill="#DA0F47"/>
</svg>
