<svg width="234" height="159" viewBox="0 0 234 159" fill="none" xmlns="http://www.w3.org/2000/svg">
<g clip-path="url(#clip0_2007_15874)">
<path d="M87.0071 31.9124L107.307 74.8009L131.881 74.7951L153.508 30.5297L119.783 62.2126L87.0071 31.9124Z" fill="#E60013"/>
<path d="M175.009 57.3874C171.818 57.439 169.249 60.0209 169.204 63.2168V63.343L138.979 63.3545L156.259 27.5404C158.627 29.7838 162.363 29.6806 164.599 27.3052C166.836 24.9298 166.733 21.1832 164.365 18.9398C163.278 17.907 161.836 17.3275 160.343 17.3218C157.06 17.3505 154.417 20.0414 154.44 23.3348C154.452 24.8782 155.058 26.3585 156.139 27.4601L128.088 53.6924L120.137 11.9227L120.012 11.8998L111.655 53.4973L84.5475 27.7642C86.8412 25.4462 86.8298 21.6996 84.5189 19.3988C82.208 17.098 78.4728 17.1095 76.1791 19.4275C73.8854 21.7455 73.8968 25.4921 76.2077 27.7986C78.5071 30.0937 82.2252 30.0879 84.5246 27.7986L101.627 63.4463L71.3743 63.4577C71.1112 60.1873 68.2569 57.7488 64.9965 58.0128C62.0221 58.2538 59.6883 60.675 59.551 63.6643C59.551 66.9347 62.1937 69.5798 65.4541 69.5798C68.7088 69.5798 71.3514 66.929 71.3514 63.6643V63.5381L107.33 75.7419H132.819L169.215 63.4118C169.267 66.6765 171.944 69.2871 175.204 69.2355C178.464 69.1839 181.061 66.4987 181.01 63.2282C180.958 59.9636 178.281 57.353 175.021 57.4046M120.069 21.602L126.458 55.3563L120.08 61.3234L113.096 54.9546L120.069 21.602ZM81.2871 65.0585H102.64L106.753 73.6993L81.2871 65.0585ZM131.909 73.6936H108.297L89.1864 33.9895L119.783 63.475L151.861 33.9723L131.915 73.6936H131.909ZM133.877 73.6936L137.955 65.0471H159.331L133.871 73.6936H133.877ZM120.252 3.05176e-05C117.037 3.05176e-05 114.435 2.61637 114.435 5.84089C114.435 9.06542 117.043 11.676 120.258 11.676C123.472 11.676 126.075 9.05968 126.075 5.83516C126.069 2.61063 123.461 3.05176e-05 120.252 3.05176e-05Z" fill="#E60013"/>
<path d="M120.28 9.98908C118.027 9.98908 116.191 8.15305 116.191 5.88671C116.191 3.6261 118.021 1.78433 120.275 1.78433C122.528 1.78433 124.365 3.62036 124.365 5.88671C124.365 8.14732 122.534 9.98908 120.275 9.98908M80.3033 27.8617C78.0153 27.8617 76.1505 25.9969 76.1505 23.6962C76.1505 21.3954 78.0153 19.5307 80.3033 19.5307C82.5913 19.5307 84.456 21.3954 84.456 23.6962C84.456 25.9912 82.5913 27.8617 80.3033 27.8617ZM65.4083 67.9272C63.1203 67.9272 61.2556 66.0625 61.2556 63.7617C61.2556 61.4667 63.1146 59.5963 65.4083 59.5963C67.7021 59.5963 69.5611 61.4667 69.5611 63.7617C69.5611 66.0568 67.7021 67.9272 65.4083 67.9272ZM175.124 67.5772C172.83 67.5772 170.971 65.7125 170.971 63.4117C170.971 61.111 172.836 59.2463 175.124 59.2463C177.412 59.2463 179.277 61.1167 179.277 63.4117C179.277 65.7068 177.418 67.5772 175.124 67.5772ZM160.349 27.4715C158.061 27.4715 156.196 25.6011 156.196 23.306C156.196 21.011 158.055 19.1405 160.349 19.1405C162.637 19.1405 164.502 21.011 164.502 23.306C164.502 25.6011 162.637 27.4715 160.349 27.4715Z" fill="#E60013"/>
<path d="M73.302 153.027H68.5829V154.881H61.4958V159H80.3833V154.881H73.302V153.027Z" fill="#231916"/>
<path d="M79.7712 148.804H66.8325V147.984H79.7712V140.668H62.1135V144.071H75.0465V144.891H62.1135V152.207H79.7712V148.804Z" fill="#231916"/>
<path d="M94.3516 148.804H89.6269V154.88H83.8726V159H102.76V154.88H94.3516V148.804Z" fill="#231916"/>
<path d="M97.4233 152.534H102.142V140.674H97.4233H84.4846V144.788H97.4233V152.534Z" fill="#231916"/>
<path d="M106.386 159H125.068V152.408H106.386V159ZM110.905 155.397H120.555V156.63H110.905V155.397Z" fill="#231916"/>
<path d="M125.074 140.261H120.349V151.587H125.074V140.261Z" fill="#231916"/>
<path d="M111.329 151.587L113.153 147.364L114.761 151.587H119.806L117.598 145.769H113.84L114.292 144.696H119.377V140.605H115.516V139.096H110.579V140.605H106.713V144.696H109.247L106.284 151.587H111.329Z" fill="#231916"/>
<path d="M167.545 140.158V147.467H165.669V151.587H167.545V158.897H171.829V140.158H167.545Z" fill="#231916"/>
<path d="M153.085 141.328V145.448V147.468V151.587V153.607V157.726H165.577V153.607H157.192V151.587H163.833V147.468H157.192V145.448H165.577V141.328H157.192H153.085Z" fill="#231916"/>
<path d="M53.8711 147.06H52.8415V140.163L49.0435 140.158V158.902H52.8415V151.18H53.8711V158.902H57.6692V140.163H53.8711V147.06Z" fill="#231916"/>
<path d="M46.2806 140.835H42.0363L38.2153 151.254H43.0773L40.4461 158.426H44.6904L48.5114 148.007H43.6493L46.2806 140.835Z" fill="#231916"/>
<path d="M148.738 140.261H145.334V154.169H148.738V140.261Z" fill="#231916"/>
<path d="M134.134 153.096H129.415V158.897H148.737V154.984H134.134V153.096Z" fill="#231916"/>
<path d="M131.137 152.361H135.501L138.956 144.845H133.951L135.713 140.84H131.343L127.899 148.368H132.899L131.137 152.361Z" fill="#231916"/>
<path d="M141.107 148.363V154.169H144.51V140.261H141.107V144.84H139.734L138.115 148.363H141.107Z" fill="#231916"/>
<path d="M191.643 152.517L191.42 152.442L191.306 152.649C190.087 154.806 187.799 156.143 185.334 156.143C181.553 156.143 178.476 153.056 178.476 149.263C178.476 145.471 181.553 142.384 185.334 142.384C187.502 142.384 189.51 143.394 190.808 145.121H189.315L192.61 150.204L195.785 145.121H193.96C192.375 141.804 189.006 139.676 185.334 139.676C180.06 139.676 175.77 143.979 175.77 149.269C175.77 154.559 180.06 158.862 185.334 158.862C188.949 158.862 192.215 156.854 193.863 153.618L194.011 153.326L193.703 153.222C192.473 152.803 191.643 152.528 191.643 152.528" fill="#231916"/>
<path d="M208.598 105.359L214.478 89.3284H203.604L194.583 113.925H205.452L199.571 129.951H210.445L219.466 105.359H208.598Z" fill="#231916"/>
<path d="M230.436 102.921V88.3991H220.192V129.951H230.436V112.749H234V102.921H230.436Z" fill="#231916"/>
<path d="M187.159 103.65V88.3991H176.914V129.951H187.159V113.926H189.801L193.571 103.65H187.159Z" fill="#231916"/>
<path d="M148.406 98.0039H151.209V121.907H148.406V129.951H174.684V121.907H171.881V98.0039H174.684V89.0704H148.406V98.0039ZM159.851 98.0039H163.238V121.907H159.851V98.0039Z" fill="#231916"/>
<path d="M110.551 114.987H100.306V129.951H141.73V121.907H110.551V114.987Z" fill="#231916"/>
<path d="M110.774 113.421L114.56 104.395L117.901 113.421H128.369L123.781 100.907H116.03L117.009 98.6751H127.482L127.476 89.7417H101.198V98.6751H106.541L100.306 113.421H110.774Z" fill="#231916"/>
<path d="M131.486 88.3991V100.907H126L128.895 108.785H131.486V118.24H141.731V88.3991H131.486Z" fill="#231916"/>
<path d="M5.59985 129.951H43.9125V114.981H5.59985V129.951ZM15.3982 121.465H34.1084V123.565H15.404V121.465H15.3982Z" fill="#231916"/>
<path d="M4.75333 106.048L0 113.197H46.7382L51.4915 106.048H4.75333Z" fill="#231916"/>
<path d="M33.056 104.263H42.8601V89.2939H36.1162H9.9014L4.7019 97.1085H33.056V104.263Z" fill="#231916"/>
<path d="M74.3944 114.27C58.7559 114.27 54.1284 117.305 54.1284 122.67C54.1284 128.034 58.7616 131.07 74.3944 131.07C90.0272 131.07 94.6661 128.029 94.6661 122.67C94.6661 117.311 90.0329 114.27 74.3944 114.27ZM74.3944 124.368C65.3968 124.368 64.373 123.697 64.373 122.67C64.373 121.643 65.3968 120.971 74.3944 120.971C83.392 120.971 84.4159 121.643 84.4159 122.67C84.4159 123.697 83.392 124.368 74.3944 124.368Z" fill="#231916"/>
<path d="M83.1291 107.259V113.421H93.3736V88.3991H83.1291V98.3252H79.5598L73.6167 107.259H83.1291Z" fill="#231916"/>
<path d="M72.6957 89.3284H61.7933L52.3381 103.546H62.474L56.2792 113.421H67.1472L77.2202 98.2676H67.0843L72.6957 89.3284Z" fill="#231916"/>
</g>
<defs>
<clipPath id="clip0_2007_15874">
<rect width="234" height="159" fill="white"/>
</clipPath>
</defs>
</svg>
