<svg width="64" height="64" viewBox="0 0 64 64" xmlns="http://www.w3.org/2000/svg">
    <g stroke="#000" stroke-width="3" fill="none" fill-rule="evenodd">
        <path d="M33.034 14.558c2.4 0 4.57.973 6.143 2.546a8.669 8.669 0 0 1 2.544 6.147c0 2.4-.972 4.574-2.544 6.147a8.656 8.656 0 0 1-6.143 2.546 8.656 8.656 0 0 1-6.142-2.546 8.669 8.669 0 0 1-2.544-6.147c0-2.4.972-4.574 2.544-6.147a8.656 8.656 0 0 1 6.142-2.546z"/>
        <path d="M16.736 48.734c0-9.007 7.297-16.31 16.299-16.31 9 0 16.299 7.303 16.299 16.31H16.736zm0 0h32.598-32.598z" stroke-linecap="round" stroke-linejoin="round"/>
    </g>
</svg>
